<?xml version="1.0" encoding="UTF-8"?>
<svg id="Layer_1" xmlns="http://www.w3.org/2000/svg" version="1.1" viewBox="0 0 754.37 1387.06">
  <!-- Generator: Adobe Illustrator 29.5.1, SVG Export Plug-In . SVG Version: 2.1.0 Build 141)  -->
  <defs>
    <style>
      .st0 {
        fill: #fff;
      }
    </style>
  </defs>
  <path class="st0" d="M426.68,1014.93c119.06-24.7,206.15-129.93,207.34-251.53.66-68.03.12-136.07.11-204.1,0-66.94.07-133.87-.02-200.81-.21-156.97-136.74-277.91-292.44-259.1-127.78,15.43-227.13,126.22-227.71,255.34-.61,136.06-.79,272.13,0,408.2.94,163.06,153.03,285.13,312.72,252M123.62,765.34c-.13-30.24.01-60.49-.2-90.73-.04-4.99,1.58-6.43,6.42-6.26,9.41.34,18.85-.12,28.26.28,1.7.07,4.72,2.65,4.73,4.09.23,35.72.14,71.44.07,107.16,0,.61-.38,1.21-.74,2.31h-37.41c-.4-5.7-1.11-11.28-1.13-16.85ZM295.12,996.76c-48.21-6.24-134.42-83.56-148.23-133.8,41.93,2.15,77.13,17.69,106.21,46.97,23.48,23.63,44.18,66.67,42.02,86.83ZM367.14,1011.86c-18.95-3.21-37.93-6.28-56.8-9.88-1.74-.33-3.7-3.91-4.1-6.23-10.08-58.75-41.85-101.29-95.34-127.4-19.74-9.64-40.84-14.7-62.88-14.97-5.01-.06-7.34-1.97-8.92-6.56-6.02-17.43-10.96-35.08-13.34-54.64,60.09-3.16,113.28,13.19,159.24,50.95,52.24,42.93,79.6,98.78,83.99,165.82-.61.97-1.23,1.94-1.84,2.91ZM288.43,832.84c24.74-17.04,50.74-28.61,80.16-33.87v145.76c-9.02-21.53-19.17-42.21-32.52-61.23-13.28-18.92-29.13-35.44-47.64-50.66ZM363.6,789.68c-28.7,5.97-55.09,17.41-79.38,33.86-1.83,1.24-5.73,1.76-7.34.67-24-16.36-49.97-28.23-78.1-35.43-.58-.15-1.04-.72-2.21-1.56,48.3-46.45,105.13-74.39,172.51-84.07,0,9.83,0,18.34,0,26.86,0,17.55-.12,35.11.06,52.66.04,4.23-1.1,6.1-5.54,7.03ZM323.72,694.44c.16,5.8-1.1,9.16-7.36,9.66-2.52.2-4.96,1.26-8.5,2.22,0-10.48.08-20.05-.03-29.62-.07-6.79-3.45-11.67-9.43-14.67-5.81-2.92-11.51-2.34-16.81,1.33-5.09,3.52-7.26,8.53-7.22,14.69.07,11.63-.35,23.27.16,34.87.25,5.71-1.49,9.02-6.78,10.96-2.77,1.02-5.28,2.75-8.56,4.52-.22-2.78-.46-4.46-.46-6.15-.02-26.54-.07-53.08.07-79.62.01-2.43.52-5.54,2.04-7.18,9.56-10.25,19.48-20.16,30.34-31.28,8.17,8.47,15.23,16.84,23.39,23.95,7.1,6.19,9.72,12.9,9.22,22.25-.79,14.65-.49,29.39-.08,44.07ZM297.94,707.02c-.03,1.36-1.44,3.21-2.72,3.91-3.03,1.66-6.36,2.77-10.92,4.66,0-13.96-.31-26.63.3-39.26.1-2.15,4.43-5.97,6.35-5.7,2.58.36,6.54,3.79,6.72,6.15.77,10.03.47,20.16.26,30.24ZM369.25,403.36c-.51,15.78-.16,31.59-.18,47.39,0,2.1-.19,4.2-1.57,6.72-1.05-1.74-2.11-3.48-3.14-5.23-21.52-36.85-53.54-56.99-96.1-60.29-9.81-.76-11.11.63-10.7,10.54,2.33,56.27,47.7,104.5,103.82,109.92,6.2.6,7.88,2.53,7.85,8.67-.24,55.08-.22,110.15,0,165.23.02,5.7-1.83,7.52-7.29,8.18-9.1,1.1-18.09,3.15-27.81,4.93v-51.26c6.07,5.99,11.24,11.14,16.47,16.24,1.72,1.68,3.34,3.83,5.44,4.63,1.62.61,4.42.03,5.73-1.12.97-.86.9-3.63.38-5.26-.49-1.53-2.1-2.75-3.33-3.98-20.48-20.48-40.96-40.96-61.48-61.4-5.58-5.56-6.81-5.55-12.32-.06-20.51,20.44-40.99,40.93-61.48,61.41-.62.62-1.64,1.17-1.77,1.89-.49,2.65-.68,5.36-.99,8.04,2.7-.45,6.27.03,7.95-1.52,6.23-5.76,11.83-12.2,17.67-18.38.6.29,1.19.57,1.78.86.2,1.78.57,3.56.58,5.34.03,24.79-.06,49.59.1,74.39.03,4.01-1.35,6.29-4.7,8.44-9.72,6.21-19.17,12.84-29.43,19.79-.73-9.59-2.79-18.51,6.42-24.78,1.95-1.33,3.99-3.13,4.93-5.2.92-2.01.48-4.63.64-6.98-2.35,0-4.8-.39-7.03.15-1.5.36-2.69,2.04-5.51,4.35,0-9.14.15-16.85-.06-24.56-.11-4.26,1.75-10.81-5.12-10.62-6.32.17-4.04,6.5-4.52,10.55-.17,1.43-.29,2.87-.53,5.42-2.27-1.81-3.57-3.58-5.21-3.98-2.23-.54-4.72-.02-7.09.04.09,2.2.04,4.42.35,6.58.1.72,1.01,1.45,1.71,1.93,9.9,6.65,12.36,16.18,10.78,27.37-.27,1.94-.38,4.01,0,5.91,3.48,17.04-3.65,29.13-16.95,39.12-4.44,3.33-8.34,2.59-12.16,1.02-1.5-.62-2.23-4.65-2.25-7.14-.14-34.23-.01-68.46-.21-102.69-.03-4.78,1.36-6.71,6.12-8.03,27.43-7.63,50.79-21.58,67.28-45.44,15.82-22.9,19.14-47.48,7.55-72.97-6.24-13.73-13.74-26.99-21.75-39.8-27.15-43.41-42.38-90.35-43.52-141.68-.06-2.56,0-5.13,0-8.09,2.52-.16,4.44-.39,6.35-.39,26.99-.02,53.98-.15,80.97.15,3.33.04,7.32,1.58,9.85,3.77,21.75,18.8,46.69,30.23,75.35,32.79,6.49.58,8.35,2.61,8.14,9.1ZM368.21,502.11c-43.88,2.46-99.64-41.51-100.03-99.56,48.29-.39,99.48,44.65,100.03,99.56ZM423.08,615.75c.06,9.86-.46,19.78.42,29.57.85,9.51,3.13,18.9,4.85,28.73-14.36,3.95-30.94-2.2-40.78-15.01-10.29-13.41-11.65-31.4-3.27-45.74,7.37-12.61,18.51-19.48,32.97-21.23,4.19-.51,6.09.72,5.88,5.26-.28,6.13-.11,12.27-.07,18.41ZM425.02,582.23c-17.07-.47-31.4,4.76-43,17.33-.55.6-1.32,1-2.62,1.98-.23-1.8-.51-2.98-.51-4.16-.03-26.09.03-52.19-.08-78.28-.01-3.79.5-6.06,5.11-6.43,22.9-1.86,43.37-10.14,61.54-24.17.97-.75,2.09-1.32,3.26-2.05,6.55,23.62,16.85,31.27,41.79,31.3,21.49.03,42.99-.44,64.45.3,6.4.22,13.54,2.54,18.84,6.12,10.45,7.07,10.14,20.61-.47,27.49-5.06,3.28-11.64,5.26-17.7,5.75-11.33.91-22.79.03-34.18.39-15.32.48-27.53,6.27-34.53,20.94-.87,1.81-4.34,3.33-6.64,3.36-18.41.3-36.84.64-55.25.13ZM479.84,402.61c-.65,54.01-50.46,100.22-99.84,99.88-1.43-50.89,48.55-100.54,99.84-99.88ZM500.57,575.88c5.47-5.67,12.37-8.1,20.17-8.12,11.41-.02,22.82.08,34.23-.07,10.7-.14,20.3-3.3,27.99-11.11,11.33-11.51,10.75-28.37-1.39-39.04-7.97-7.01-17.47-9.75-27.94-9.73-22.16.03-44.34.45-66.48-.27-6.66-.21-14.02-2.34-19.65-5.85-10.65-6.63-10.85-20.56-.36-27.46,5.52-3.63,12.91-6,19.51-6.13,32.25-.62,64.52-.53,96.77-.19,16.39.18,30.39-3.75,40.52-18.3v132.24h-127.18c1.46-2.33,2.35-4.45,3.83-5.98ZM607.59,451.6c-6,3.68-13.84,5.91-20.91,6.06-31.15.64-62.32.23-93.48.32-6.52.02-13.03.55-20.57.88,1.11-2.01,2.08-3.78,3.05-5.54,8.75-15.81,13.71-32.73,14.68-50.78.53-9.75-1.06-11.36-10.69-10.61-42.29,3.25-74.2,23.24-95.83,59.69-1.16,1.96-2.24,3.98-4.54,5.54v-61.68c5.82-.79,11.47-1.38,17.05-2.36,24.82-4.34,46.55-15.07,65.63-31.5,2.55-2.19,6.43-3.67,9.8-3.9,8.3-.55,16.67-.06,25-.22,3.71-.07,5.09,1.43,5,5.06-.18,7.46-.13,14.92-.15,22.38-.07,20.89,10.49,32.12,31.77,32.71,18.42.51,36.86.2,55.3.18,7.51,0,14.36,1.87,20.06,6.9,9.08,8.01,9.09,20.54-1.19,26.84ZM476.18,347.4c4.94-7.22,9.51-13.9,13.72-20.05,7.11,6.99,13.72,13.48,20.41,20.05h-34.13ZM380.04,384.49c-2.23-52.27,47.53-114.84,115.5-116.46,1.57,55.64-50.83,115.9-115.5,116.46ZM404.82,298.15c-2.81-10.39-5.61-20.64-8.37-30.9-2.98-11.04-2.5-10.4,6.42-16.91,6.34-4.64,9.77-3.37,14.44,1.91,6.35,7.17,13.55,13.59,20.55,20.5-11.34,8.72-21.84,16.79-33.04,25.4ZM374.23,248.97c-25.31.21-46.73-20.86-46.93-46.17-.21-26.02,20.48-47.1,46.36-47.22,25.91-.12,46.99,20.82,46.99,46.65,0,25.38-21.01,46.53-46.41,46.74ZM340.25,247.72c3.83,4.5,14.24,3.35,13.15,10.47-2.07,13.46-6.69,26.53-10.31,39.97-11.12-8.55-21.61-16.61-32.7-25.15,8.29-8.37,16.5-16.82,24.96-25,.94-.91,4.23-1.09,4.9-.3ZM368.48,384.26c-57.88.93-116.17-52.75-116.44-115.6,47.89-2.57,114.2,43.32,116.44,115.6ZM258.57,328.15c3.58,5.21,8.09,11.8,13.09,19.09h-32.2c5.67-5.66,12.38-12.36,19.11-19.09ZM373.95,349c-6.66-11.76-14.35-25.17-21.81-38.7-.83-1.5-.95-3.82-.51-5.53,3.53-13.8,7.38-27.52,10.89-41.33.97-3.83,2.54-5.25,6.75-5.06,14.75.65,14.76.46,18.68,15.08,2.72,10.16,5.52,20.3,8.08,30.51.49,1.95.71,4.55-.18,6.17-7.43,13.56-15.15,26.96-21.91,38.86ZM378.86,666.89c9.35,7.95,18.42,14.92,30.09,16.85,6.6,1.09,13.47.45,20.2.9,2.05.14,5.12.69,5.88,2.06,10.79,19.55,26.05,34.5,47.28,45.71-2.97.46-4.25.83-5.54.83-30.26.04-60.53-.06-90.79.15-5.2.04-7.34-1.1-7.25-6.85.33-19.88.13-39.77.13-59.66ZM379.44,1010.45v-34.94c5.29,11.31,10.43,22.32,15.82,33.84-4.94.34-10.08.7-15.82,1.1ZM379.26,920.42v-144.53c.53-.4,1.07-.8,1.61-1.19,4.5,4.79,9.87,9.01,13.35,14.45,19.03,29.78,19.98,61.1,5.62,92.83-6.08,13.43-13.9,26.08-20.57,38.44ZM525.32,959.05c-32.77,24.81-69.29,40.96-109.89,47.94-5.15.89-8.06-.42-11.12-4.31-21.36-27.14-22.48-74.13-2.72-104.27,21.8-33.24,23.04-68.15,7.26-104.07-1.84-4.18-4.48-8.05-7.12-11.8-2.5-3.55-5.5-6.75-9.43-11.5h5.84c40.16,0,80.32.14,120.47-.11,5.88-.04,7.51,1.66,7.32,7.43-.42,12.87-.13,25.77-.13,40.07-20.37-18.26-41.52-22.11-63.08-5.6-14.91,11.42-20.38,27.69-15.34,45.86,6.29,22.72,22.73,33.33,46.71,34.04-5.92,14.11-6.47,27.71,1.46,40.69,7.91,12.95,19.97,19.21,36.13,20.33-2.77,2.32-4.5,3.89-6.36,5.3ZM525.72,847.77c0,18.84-15.93,34.73-34.87,34.81-19.37.08-35.07-15.69-35-35.17.06-19.25,15.48-34.66,34.71-34.69,19.44-.04,35.17,15.65,35.16,35.06ZM530.61,943.3c-17.11.02-30.95-13.77-31.01-30.89-.05-17.15,13.68-31.06,30.75-31.14,17.45-.08,31.48,13.87,31.38,31.22-.09,17.05-13.97,30.79-31.13,30.81ZM572.8,911.98c-1.89-7.07-3.4-12.7-5.04-18.85,6.13-.94,12.24-1.87,20.1-3.07-5.44,7.92-9.93,14.46-15.06,21.92ZM570.7,882.56c-19.25.08-35.17-15.89-35.06-35.19.11-19.14,15.68-34.63,34.84-34.66,19.52-.02,35.1,15.58,35.02,35.08-.08,19.06-15.71,34.68-34.79,34.76ZM613.4,832.32c-7.89-15.76-18.56-25.98-34.93-28.86-16.32-2.87-30.03,2.54-42.84,15.48,0-16.23-.09-30.37.16-44.51.02-1.14,2.4-3.2,3.69-3.21,26.74-.19,53.49-.2,80.23.01,1.35.01,3.88,2.38,3.84,3.58-.68,19.06-4.09,37.65-10.15,57.5ZM624.35,755.47c.58,4.68-1.52,5.94-6.02,5.93-77.83-.1-155.65-.1-233.47,0-4.49,0-6.22-1.25-6.09-5.93.42-14.53-1.67-12.39,12-12.43,37.05-.09,74.1-.03,111.15-.03v.03c38.15,0,76.29.14,114.43-.14,6.26-.05,8.98,1.56,7.99,7.97-.23,1.5-.18,3.08,0,4.59ZM575.99,732.53c20.07-11.27,35.72-26.64,46.53-46.9.58.17,1.17.34,1.76.52,0,14.56.07,29.12-.13,43.68-.02,1.13-1.93,3.19-2.99,3.21-14.96.21-29.92.15-45.16-.5ZM624.46,599.22c-.91,18.81.79,38.02-2.4,56.4-8.51,49.05-53.42,81.47-103.75,76.96-47.04-4.21-84.75-45.6-85.49-93.96-.2-13.38.19-26.77-.17-40.15-.14-5.33,1.68-6.67,6.78-6.64,29.81.21,59.63.1,89.44.1,29.4.02,58.8.17,88.19-.11,5.8-.06,7.66,1.56,7.38,7.4ZM624.3,424.53c0,.54-.56,1.08-1.26,2.38-10.13-17.02-26.05-19.52-43.53-18.94-14.03.46-28.09.27-42.13-.01-4.76-.1-9.67-.79-14.2-2.2-7.19-2.24-11.24-7.65-11.47-15.23-.28-9.43-.02-18.87-.14-28.3-.04-3.35,1.24-4.69,4.64-4.68,34.45.06,68.91.05,103.36,0,3.17,0,4.86.88,4.85,4.47-.1,20.85-.06,41.69-.11,62.54ZM609.54,273.76c8.33,22.8,13.3,46.33,14.27,70.64.03.83-.29,1.67-.57,3.13-2.16.1-4.28.27-6.41.27-28.3.02-56.6.13-84.89-.15-3.07-.03-6.77-1.67-9.05-3.77-8.21-7.58-15.84-15.8-23.91-23.54-2.93-2.81-3.06-5.12-2.06-9.11,3.62-14.38,6.96-28.89,9.27-43.53,1.42-9.04-.86-11.24-9.72-9.78-14.84,2.45-29.47,6.14-44.23,9.14-2.08.42-5.22.84-6.41-.29-9.55-9.01-18.75-18.39-28.08-27.67,3-5.43,5.45-10.56,8.66-15.15.83-1.19,4.24-1.38,6.15-.87,45.13,11.97,90.22,24.11,135.32,36.21,11.86,3.18,23.76,6.18,35.54,9.64,2.36.69,5.34,2.72,6.11,4.84ZM535.8,167.24c28.64,24.39,50.92,53.65,66.38,88.01.24.55.14,1.25.3,3.01-18.57-4.94-36.32-9.63-54.05-14.38-37.47-10.04-74.92-20.19-112.43-30.07-4.63-1.22-6.28-2.87-5.87-7.96,1.12-13.79.81-13.84,14.75-17.58,27.73-7.44,55.45-14.92,83.24-22.14,2.36-.61,5.98-.33,7.68,1.11ZM462.75,123.85c21.25,7.85,40.83,18.75,60.52,33.2-20.48,5.52-39.03,10.53-57.6,15.52-11.21,3.01-22.45,5.91-33.63,9.02-3.18.89-5.2.7-6.78-2.75-2.08-4.53-4.87-8.73-7.6-13.5,13.49-13.45,26.95-26.92,40.54-40.25,1-.98,3.31-1.68,4.54-1.23ZM407.41,109.77c13.69,2.47,27.32,5.27,41.88,8.17-14.02,14.17-26.71,26.99-39.56,39.98-5.02-2.94-10.43-6.11-16.3-9.55,3.23-11.97,6.38-23.98,9.85-35.9.36-1.25,2.9-2.92,4.13-2.7ZM394.09,108.03c-3.43,12.7-6.56,24.44-9.82,36.13-.23.82-1.48,1.89-2.29,1.91-5.44.17-10.9.2-16.33-.04-.83-.04-2.02-1.64-2.32-2.72-3.14-11.36-6.13-22.76-9.46-35.28h40.22ZM299.31,117.81c13.64-2.73,27.27-5.56,40.96-8,1.31-.23,4.04,1.67,4.46,3.08,3.45,11.72,6.52,23.55,9.7,35.35-4.97,3.03-9.53,6-14.29,8.58-1.17.63-3.65.65-4.46-.14-12.33-12.04-24.48-24.27-36.67-36.45.1-.81.2-1.61.3-2.42ZM229.26,153.64c17.86-9.69,35.69-19.46,53.66-28.94,1.71-.9,5.25-.98,6.41.14,13.84,13.36,27.39,27.03,40.87,40.47-2.91,5.17-5.3,9.85-8.15,14.22-.82,1.26-3.21,2.63-4.45,2.3-30.44-7.96-60.82-16.14-92.14-26.02,1.27-.73,2.52-1.48,3.8-2.18ZM147.35,251.54c15.26-32.14,36.42-59.8,63.14-83.28,3.18-2.79,6-3.31,10.08-2.19,30.43,8.35,60.91,16.55,91.45,24.49,4.84,1.26,6.09,3.28,5.73,8.15-1,13.65-.76,13.66-14.22,17.27-50.59,13.56-101.17,27.13-151.76,40.68-1.85.5-3.74.82-7.06,1.54,1.23-3.09,1.83-4.93,2.65-6.65ZM126.26,322.01c3.27-15.65,7.27-31.15,11.57-46.55.74-2.67,4.07-5.81,6.81-6.55,56.91-15.53,113.93-30.69,170.87-46.11,4.09-1.11,5.9-.19,7.56,3.55,1.85,4.16,4.49,7.96,7.23,12.66-9.35,9.29-18.7,18.8-28.41,27.93-1.16,1.09-4.34.48-6.46.04-14.55-2.98-28.97-6.63-43.61-9.02-9.21-1.51-11.36.48-10,9.43,2.18,14.44,5.28,28.79,8.91,42.93,1.21,4.69,1.11,7.41-2.46,10.75-8.01,7.48-15.47,15.56-23.43,23.12-1.87,1.78-4.79,3.46-7.24,3.48-30.28.23-60.57.14-90.86.11-.62,0-1.24-.26-3-.65.79-8.34.82-16.9,2.53-25.11ZM131.37,357.39c13.81.48,27.64.26,41.46.08,4.17-.06,5.76,1.21,5.82,5.59.76,54.73,16.49,104.92,45.89,150.99,5.54,8.68,10.73,17.63,15.49,26.76,18.26,35.03,12.82,64.59-16.73,90.98-14.16,12.64-30.67,20.85-50.28,25.45,0-18.79-.09-36.52.14-54.25.02-1.84,1.66-3.95,3.09-5.42,7.01-7.25,14.21-14.33,21.33-21.49,2.4-2.41,5.08-5.14,1.93-8.41-3.33-3.45-6.32-1.03-8.97,1.63-5.32,5.34-10.68,10.65-17.53,15.26,0-10.2,1.1-20.54-.24-30.56-2.61-19.54,2.75-35.02,19.14-46.45,2.66-1.85,5.18-4.29,6.86-7.02,1.12-1.81.63-4.6.85-6.96-2.51.04-5.89-.95-7.37.3-5.68,4.8-10.73,10.34-16.05,15.57-.56.55-1.33.91-3.21,2.16,0-7.72,0-14.39,0-21.07,0-5.48-.05-10.97,0-16.45.04-3.66-.97-7.41-5.02-6.72-1.97.34-4.65,4.5-4.69,6.97-.37,23.03-.22,46.07-.23,69.1,0,2.51,0,5.02,0,7.53-.75.42-1.5.85-2.26,1.27-3.59-4-7.14-8.04-10.8-11.98-1.94-2.09-3.77-4.54-6.18-5.84-1.9-1.02-4.61-.54-6.96-.73.1,2.5-.82,5.91.46,7.34,6.75,7.49,13.92,14.61,21.23,21.56,3.27,3.11,4.63,6.34,4.59,10.91-.2,26.1-.24,52.22.01,78.32.05,5.48-1.63,7.3-7.1,7.04-8.54-.41-17.12-.43-25.66-.01-5.54.27-7.03-1.63-7.01-7.06.2-42.56.1-85.12.1-127.69,0-52.87.09-105.75-.15-158.62-.03-6.26,1.59-8.32,8.01-8.1Z"/>
  <path class="st0" d="M711.68,670.23c0-31.6,0-63.2-.01-94.8,0-19.31-.03-38.62,0-57.93,0-3.72-1.1-7.26-5.22-6.51-1.92.35-3.34,4.09-4.7,6.46-.47.83-.08,2.15-.08,3.25,0,86.24.02,172.48-.06,258.72-.01,12.94.19,25.95-1.01,38.8-7.87,84.49-47.85,151.52-114.25,202.58-114.16,87.79-274.32,96.13-396.33,19.58-93.94-58.94-144.8-143.46-144.01-256.62.62-87.56.11-175.12.1-262.68,0-1.97.5-4.24-.3-5.84-.93-1.85-3.06-4.3-4.63-4.27-1.61.03-3.6,2.5-4.62,4.34-.32.57-.41,1.27-.41,2.02,0,1.03.17,2.15.17,3.16,0,91.73-.06,183.46,0,275.18.04,53.11,13.94,102.49,41.99,147.48,47.73,76.55,116.7,125.18,203.48,146.8,116.38,28.99,223.98,8.17,318-67.52,72.66-58.5,111.14-135.07,111.93-228.94v-6.63c-.19-38.88-.03-77.76-.03-116.65"/>
  <path class="st0" d="M685.17,450c-.8,0-1.48.68-1.48,1.48,0,.8.68,1.48,1.48,1.48l38.62-.02v13c0,.8.68,1.48,1.55,1.48.8,0,1.48-.68,1.48-1.48v-28.95c-.01-.8-.69-1.48-1.49-1.48-.86,0-1.54.68-1.54,1.48v13s-38.61.02-38.61.02ZM684.43,395.17c-.12.06-.18.18-.25.25-.37.31-.56.68-.56,1.17,0,.86.68,1.54,1.48,1.54l39.73.04c.8,0,1.48-.68,1.48-1.54,0-.8-.68-1.48-1.48-1.48l-35.11-.04,36.24-26.08c.68-.43.8-1.42.37-2.09-.43-.56-1.05-.74-1.66-.56l-39.54-.04c-.8,0-1.48.68-1.48,1.48,0,.8.68,1.48,1.48,1.48l35.29.04-36,25.83ZM718.54,309.73l-21.88,11.54-2.2-17.29,24.08,5.75ZM684.21,327.82c-.58.32-.87.98-.8,1.53-.04.19.04.3.07.55.41.69,1.37.94,2.07.54l37.81-19.9c.53-.25.82-.91.73-1.58-.08-.61-.52-1.18-1.1-1.35l-41.59-9.8c-.77-.21-1.63.33-1.86,1.11.08.18.05.43.07.55.08.61.51,1.11,1.16,1.28l10.56,2.51,2.48,19.49-9.6,5.07ZM697.89,248.32c-4.68,1.89-10.03-.33-12.01-4.91l-.21-.51-3.88-9.59,17.25-6.97,3.99,9.88c1.91,4.74-.34,10.17-5.14,12.11ZM671.98,259.32c-1,1.14-1.09,2.57-.79,3.31l.05.11c.14.34.31.61.33.66.59.63,1.52.65,2.2.17.54-.48.6-1.31.29-1.91.03-.08.15-.46.74-.96.74-.63,2.08-1.44,4.42-2.38,4.51-1.82,6.32-5.74,6.74-8.97.02-.27,0-.47.06-.69,3.4,3.15,8.42,4.24,12.99,2.39,6.34-2.56,9.37-9.7,6.83-15.98l-4.5-11.14-.07-.17-.05-.11c-.33-.66-1.19-.98-1.88-.7l-37.23,15.04c-.74.3-1.12,1.18-.82,1.92.32.8,1.2,1.17,1.95.87l15.82-6.39,3.92,9.71c.02.06-.01.14,0,.33.19.79.41,3.16-.13,5.43-.6,2.3-1.83,4.52-4.74,5.7-3.37,1.36-5.09,2.52-6.13,3.74ZM635.4,166.14h0c-7.68,5.78-9.22,16.73-3.48,24.36,5.81,7.73,16.77,9.27,24.44,3.49l19.34-14.56c.64-.48.77-1.43.26-2.12-.48-.64-1.43-.77-2.07-.29l-19.34,14.56c-6.35,4.78-15.35,3.46-20.22-2.9-4.69-6.34-3.46-15.36,2.89-20.13l19.34-14.56c.64-.48.77-1.43.26-2.12-.48-.64-1.43-.77-2.07-.29l-19.34,14.56ZM608.86,113.02l-8.04,23.39-13.45-11.09,21.48-12.3ZM596.23,149.71c-.2.63.04,1.31.47,1.66.1.17.24.2.43.35.77.23,1.65-.25,1.88-1.02l13.93-40.4c.21-.55-.03-1.22-.55-1.65-.47-.39-1.19-.5-1.73-.23l-37.02,21.35c-.71.37-.96,1.36-.6,2.08.18.07.33.27.43.35.48.39,1.14.46,1.72.14l9.41-5.41,15.16,12.5-3.52,10.27ZM534.57,104.9c-.4.69-.15,1.62.54,2.02.69.4,1.62.15,2.02-.54l19.33-33.43,11.25,6.51c.69.4,1.62.15,2.05-.59.4-.69.15-1.62-.54-2.02l-25.06-14.49c-.69-.4-1.62-.15-2.02.54-.43.75-.18,1.67.51,2.07l11.25,6.5-19.33,33.43ZM463.19,69.7h0c2.53,3.79,6.96,8.71,13.21,10.8,4.1,1.33,8.19,1.29,11.59.19,3.4-1.09,6.22-3.42,7.28-6.69,1.06-3.28.12-6.56-2.01-9.18-2.11-2.69-5.36-5.04-9.22-7.12l-.12-.04c-3.46-1.9-6.19-3.87-7.79-5.94-1.6-2.07-2.04-3.9-1.44-5.97.68-2.1,2.5-3.71,5.04-4.57,2.52-.8,5.83-.82,9.17.26,4.51,1.46,7.31,4.81,9.85,7.97.45.6,1.33.69,1.87.22.62-.51.69-1.33.24-1.93-2.54-3.14-5.73-7.09-11.13-8.83-3.87-1.25-7.69-1.26-10.87-.21-3.18,1.03-5.75,3.18-6.75,6.27-.99,3.05-.08,6.06,1.91,8.5,1.97,2.51,4.97,4.65,8.55,6.58l.12.04c3.74,2.05,6.66,4.23,8.42,6.4,1.73,2.24,2.28,4.36,1.52,6.71-.74,2.28-2.67,4.05-5.48,4.95-2.76.92-6.32.92-9.89-.23-5.35-1.67-9.53-6.18-11.78-9.62-.38-.64-1.22-.85-1.87-.41-.58.39-.79,1.23-.41,1.87ZM401.74,64.24c-.08.8.47,1.47,1.2,1.6h.12s.18.03.18.03l21.88,2.15c.86.08,1.54-.53,1.62-1.33.08-.86-.46-1.59-1.32-1.68l-20.53-2.02,1.66-16.92,17.96,1.77c.8.08,1.54-.53,1.62-1.33.08-.86-.52-1.6-1.32-1.68l-17.96-1.77,1.67-16.98,20.53,2.02c.86.08,1.54-.53,1.62-1.39.08-.8-.47-1.53-1.33-1.62l-21.94-2.16h-.12c-.8-.09-1.54.52-1.62,1.31l-3.93,39.96ZM357.08,34.89c.38,5.04-3.36,9.46-8.32,9.96l-.55.04-10.32.78-1.41-18.55,10.62-.81c5.1-.39,9.59,3.41,9.98,8.57ZM359.7,62.91c.78,1.3,2.11,1.82,2.91,1.76h.12c.37-.04.67-.12.73-.13.78-.37,1.08-1.26.83-2.04-.3-.66-1.06-.97-1.73-.86-.07-.06-.39-.28-.69-1-.38-.9-.74-2.41-.93-4.93-.37-4.85-3.55-7.76-6.5-9.14-.26-.1-.44-.15-.64-.26,4.03-2.28,6.59-6.74,6.22-11.65-.52-6.82-6.4-11.87-13.15-11.36l-11.98.91h-.18s-.12.02-.12.02c-.73.12-1.29.84-1.24,1.58l3.04,40.04c.06.8.79,1.42,1.59,1.36.86-.07,1.48-.79,1.42-1.59l-1.29-17.01,10.44-.79c.06,0,.13.05.32.1.81.06,3.13.57,5.14,1.77,2.01,1.27,3.76,3.11,3.99,6.24.27,3.62.86,5.62,1.7,6.97ZM253.32,84.26l-11.7-35.18,6.2-2.06c9.72-3.17,20.21,2.04,23.46,11.8,3.23,9.7-2.06,20.16-11.76,23.38l-6.2,2.06ZM260.46,85.06c11.28-3.75,17.43-15.92,13.68-27.2-3.75-11.28-16-17.46-27.28-13.71l-7.48,2.49-.18.06c-.76.25-1.19,1.11-.94,1.87l12.67,38.11c.25.76,1.03,1.15,1.75.98l.23-.08,7.54-2.51ZM173.27,104.37h0c-5.66-9.03-3.19-20.17,5.11-25.37,8.04-5.04,19.14-2.4,24.85,6.6,5.54,8.96,3.17,20.26-4.87,25.29-8.3,5.2-19.5,2.4-25.09-6.52ZM170.71,105.97h0c6.46,10.2,19.39,13.66,29.25,7.48,9.76-6.11,12.23-19.22,5.88-29.48-6.46-10.2-19.33-13.69-29.09-7.57-9.86,6.18-12.39,19.32-6.03,29.58ZM111.96,160.16h0c-7.72-7.34-8.09-18.75-1.34-25.84,6.54-6.87,17.95-7.07,25.71.23,7.59,7.3,8.09,18.84,1.56,25.71-6.75,7.1-18.29,7.17-25.92-.09ZM109.88,162.35h0c8.79,8.28,22.17,8.42,30.19-.01,7.94-8.34,7.08-21.65-1.62-30.02-8.79-8.28-22.12-8.47-30.06-.12-8.02,8.43-7.21,21.79,1.49,30.15ZM91.65,226.91c.69.41,1.62.17,2.02-.52.44-.74.2-1.67-.49-2.08l-15.98-9.4,9.18-15.6c.44-.74.2-1.67-.49-2.08-.74-.44-1.67-.2-2.11.55l-9.18,15.61-14.7-8.65,10.5-17.83c.41-.69.17-1.62-.58-2.06-.69-.41-1.62-.17-2.02.52l-11.18,19-.12.21c-.35.72-.13,1.56.56,1.97l34.61,20.37ZM67.5,296.15c.79.16,1.58-.38,1.74-1.16.16-.79-.38-1.58-1.16-1.74l-37.87-7.55,2.54-12.74c.16-.79-.38-1.58-1.22-1.75-.79-.16-1.58.38-1.74,1.16l-5.66,28.39c-.16.79.38,1.58,1.16,1.74.85.17,1.64-.36,1.8-1.15l2.54-12.74,37.87,7.55ZM62.69,369.62c.8,0,1.42-.61,1.48-1.35v-22.3c.01-.86-.66-1.48-1.46-1.48-.86,0-1.54.61-1.54,1.48v20.63s-17.01-.01-17.01-.01v-18.05c.01-.8-.66-1.48-1.47-1.48-.86,0-1.54.68-1.54,1.48v18.05s-17.07-.01-17.07-.01v-20.63c.01-.86-.66-1.48-1.53-1.48-.8,0-1.48.61-1.48,1.48v22.05s-.01.12-.01.12c0,.8.68,1.48,1.48,1.48l40.16.03ZM62.68,413.8h0c.8,0,1.48-.68,1.48-1.48,0-.86-.68-1.54-1.48-1.54H22.52c-.8,0-1.48.67-1.48,1.53,0,.8.68,1.48,1.48,1.48h40.16ZM61.14,478.23H24.06s0-6.52,0-6.52c.06-10.22,8.31-18.54,18.6-18.54,10.22,0,18.48,8.31,18.48,18.54v6.53ZM64.16,471.7c0-11.89-9.61-21.56-21.5-21.55-11.89,0-21.62,9.67-21.62,21.56v7.88s0,.18,0,.18c0,.8.68,1.48,1.48,1.48h40.16c.8,0,1.42-.62,1.48-1.36v-8.19Z"/>
  <path class="st0" d="M665.03,1295.72v-141.8h21.59v123.43h27.31v18.37h-48.9ZM576.54,1295.72v-141.8h21.59v123.43h27.31v18.37h-48.9ZM483.59,1295.72v-141.8h47.52v18.62h-25.93v41.25h24.64v18.21h-24.64v45.1h26.9v18.62h-48.49ZM356.1,1295.72l-17.33-141.8h19.33l10.4,101.04,13.2-101.04h17.41l13.31,101.04,9.19-101.04h19.42l-16.28,141.8h-21.51l-12.57-94.28-13.06,94.28h-21.51ZM238.41,1295.72v-123.13h-16.58v-18.67h54.07v18.67h-15.95v123.13h-21.53ZM120.4,1295.72l20.24-141.8h28.52l21.51,141.8h-20.13l-3.38-25.3h-22.88l-3.08,25.3h-20.79ZM164.9,1253.09l-9.52-71.23h-.33l-8.69,71.23h18.54ZM33.92,1295.72v-141.8h47.52v18.62h-25.93v41.25h24.64v18.21h-24.64v45.1h26.9v18.62h-48.49Z"/>
  <path class="st0" d="M631.65,1365.71l.66,4.26c-1.35.28-2.57.43-3.63.43-1.75,0-3.1-.27-4.07-.83-.96-.56-1.64-1.28-2.03-2.19-.39-.91-.58-2.81-.58-5.71v-16.41h-3.57v-3.73h3.57v-7.04l4.83-2.9v9.94h4.83v3.73h-4.83v16.68c0,1.38.08,2.27.26,2.66.16.39.44.7.82.94.38.23.93.35,1.65.35.53,0,1.23-.06,2.1-.19M590.66,1370.01v-28.48h4.33v4.04c2.08-3.1,5.1-4.65,9.04-4.65,1.72,0,3.29.31,4.73.92,1.44.61,2.51,1.43,3.23,2.42.71,1,1.22,2.19,1.5,3.56.17.9.27,2.46.27,4.69v17.48h-4.83v-17.3c0-1.97-.18-3.44-.56-4.41-.38-.97-1.04-1.75-1.99-2.33-.95-.58-2.08-.87-3.36-.87-2.05,0-3.81.65-5.3,1.96-1.49,1.3-2.23,3.78-2.23,7.42v15.54h-4.83ZM578.36,1355.75c-1.76.71-4.39,1.32-7.9,1.81-1.99.28-3.4.6-4.22.96-.82.36-1.45.88-1.9,1.55-.45.69-.68,1.44-.68,2.29,0,1.27.48,2.34,1.46,3.19s2.41,1.28,4.28,1.28,3.51-.4,4.97-1.22c1.44-.8,2.51-1.91,3.19-3.31.52-1.09.78-2.69.78-4.8l.03-1.76ZM578.74,1366.45c-1.79,1.53-3.52,2.6-5.18,3.23s-3.43.94-5.33.94c-3.13,0-5.53-.76-7.22-2.29-1.68-1.52-2.52-3.47-2.52-5.83,0-1.39.32-2.66.95-3.81.64-1.15,1.47-2.07,2.5-2.76,1.03-.69,2.19-1.23,3.47-1.58.95-.25,2.39-.48,4.3-.72,3.9-.46,6.78-1.02,8.61-1.66.02-.66.03-1.08.03-1.25,0-1.96-.46-3.34-1.37-4.14-1.23-1.09-3.07-1.63-5.51-1.63-2.28,0-3.96.4-5.04,1.2-1.09.8-1.88,2.2-2.41,4.23l-4.72-.66c.43-2.02,1.13-3.66,2.12-4.9.99-1.24,2.41-2.19,4.28-2.87,1.86-.67,4.02-1.01,6.47-1.01s4.42.28,5.94.86c1.52.58,2.64,1.29,3.36,2.16.71.87,1.22,1.97,1.51,3.29.16.82.24,2.3.24,4.44v6.4c0,4.47.1,7.3.3,8.5.19,1.2.59,2.34,1.18,3.44h-5.05c-.48-1.02-.8-2.2-.93-3.57ZM541.82,1370.01v-28.48h4.33v4.36c1.11-2.02,2.13-3.36,3.07-4,.94-.65,1.98-.97,3.1-.97,1.63,0,3.28.51,4.97,1.53l-1.72,4.45c-1.17-.66-2.34-.99-3.51-.99-1.05,0-1.99.32-2.83.95-.83.63-1.43,1.51-1.78,2.63-.54,1.71-.8,3.58-.8,5.62v14.88h-4.83ZM529.96,1370.01v-4.23c-2.21,3.23-5.21,4.84-9.01,4.84-1.67,0-3.24-.32-4.69-.96-1.45-.65-2.53-1.45-3.24-2.42-.7-.98-1.2-2.17-1.48-3.58-.19-.95-.29-2.45-.29-4.5v-17.62h4.83v15.76c0,2.51.1,4.22.29,5.08.3,1.27.94,2.26,1.93,2.98.98.72,2.19,1.09,3.63,1.09s2.8-.37,4.06-1.11c1.26-.74,2.16-1.76,2.69-3.03.52-1.27.79-3.13.79-5.55v-15.23h4.83v28.48h-4.33ZM499.06,1355.75c-1.76.71-4.39,1.32-7.9,1.81-1.99.28-3.4.6-4.22.96-.82.36-1.45.88-1.9,1.55-.45.69-.68,1.44-.68,2.29,0,1.27.48,2.34,1.46,3.19.98.85,2.41,1.28,4.28,1.28s3.51-.4,4.97-1.22c1.44-.8,2.51-1.91,3.19-3.31.52-1.09.78-2.69.78-4.8l.03-1.76ZM499.44,1366.45c-1.79,1.53-3.52,2.6-5.18,3.23-1.66.63-3.43.94-5.33.94-3.13,0-5.53-.76-7.22-2.29-1.68-1.52-2.52-3.47-2.52-5.83,0-1.39.32-2.66.95-3.81.64-1.15,1.47-2.07,2.5-2.76,1.03-.69,2.19-1.23,3.48-1.58.95-.25,2.39-.48,4.3-.72,3.9-.46,6.78-1.02,8.61-1.66.02-.66.03-1.08.03-1.25,0-1.96-.46-3.34-1.37-4.14-1.23-1.09-3.07-1.63-5.51-1.63-2.28,0-3.96.4-5.04,1.2-1.09.8-1.88,2.2-2.41,4.23l-4.72-.66c.43-2.02,1.13-3.66,2.12-4.9.99-1.24,2.41-2.19,4.28-2.87,1.86-.67,4.02-1.01,6.47-1.01s4.42.28,5.94.86c1.52.58,2.64,1.29,3.36,2.16.71.87,1.22,1.97,1.51,3.29.16.82.24,2.3.24,4.44v6.4c0,4.47.1,7.3.3,8.5.19,1.2.59,2.34,1.18,3.44h-5.05c-.48-1.02-.8-2.2-.93-3.57ZM476.07,1365.71l.66,4.26c-1.35.28-2.57.43-3.63.43-1.75,0-3.1-.27-4.07-.83-.96-.56-1.64-1.28-2.03-2.19-.39-.91-.59-2.81-.59-5.71v-16.41h-3.57v-3.73h3.57v-7.04l4.83-2.9v9.94h4.83v3.73h-4.83v16.68c0,1.38.08,2.27.26,2.66.16.39.44.7.82.94.38.23.93.35,1.65.35.53,0,1.23-.06,2.1-.19ZM436.24,1361.51l4.77-.77c.26,1.91,1.01,3.37,2.24,4.4,1.23,1.02,2.94,1.53,5.14,1.53s3.87-.45,4.95-1.35c1.07-.9,1.61-1.96,1.61-3.17,0-1.09-.48-1.95-1.44-2.57-.68-.43-2.32-.97-4.94-1.64-3.53-.89-5.97-1.66-7.34-2.3-1.36-.66-2.4-1.55-3.1-2.71-.7-1.14-1.06-2.41-1.06-3.8,0-1.27.29-2.44.87-3.52.59-1.08,1.37-1.98,2.37-2.69.75-.55,1.77-1.02,3.06-1.4,1.3-.38,2.68-.58,4.16-.58,2.23,0,4.19.32,5.87.97,1.69.64,2.94,1.52,3.74,2.62.8,1.11,1.35,2.58,1.66,4.43l-4.72.66c-.21-1.48-.83-2.64-1.86-3.47-1.02-.83-2.47-1.24-4.34-1.24-2.2,0-3.79.37-4.73,1.1-.94.73-1.42,1.59-1.42,2.57,0,.62.19,1.19.59,1.69.39.51,1.01.94,1.85,1.28.48.18,1.89.59,4.25,1.23,3.4.91,5.78,1.66,7.13,2.23,1.35.58,2.41,1.43,3.18,2.52.78,1.11,1.16,2.48,1.16,4.12s-.47,3.11-1.41,4.53c-.94,1.42-2.3,2.51-4.06,3.29-1.77.78-3.78,1.16-6.01,1.16-3.69,0-6.52-.77-8.46-2.3-1.94-1.54-3.17-3.8-3.71-6.81ZM411.27,1353.06h15.86c-.21-2.4-.82-4.19-1.82-5.39-1.53-1.86-3.52-2.79-5.96-2.79-2.21,0-4.07.74-5.58,2.22-1.5,1.48-2.33,3.47-2.5,5.95ZM427.07,1360.8l4.99.66c-.78,2.9-2.23,5.16-4.35,6.76-2.12,1.6-4.83,2.4-8.13,2.4-4.15,0-7.44-1.28-9.88-3.84-2.43-2.55-3.65-6.15-3.65-10.76s1.23-8.49,3.69-11.12c2.46-2.64,5.65-3.96,9.57-3.96s6.9,1.29,9.3,3.88c2.4,2.59,3.61,6.23,3.61,10.92,0,.28,0,.71-.03,1.28h-21.21c.18,3.12,1.06,5.51,2.65,7.17,1.58,1.66,3.57,2.49,5.93,2.49,1.77,0,3.27-.47,4.52-1.4,1.25-.93,2.24-2.42,2.97-4.47ZM373.95,1348.07h11.16c2.38,0,4.22-.25,5.56-.74,1.34-.48,2.35-1.27,3.04-2.36.7-1.08,1.04-2.25,1.04-3.52,0-1.86-.67-3.39-2.01-4.59-1.34-1.2-3.47-1.79-6.36-1.79h-12.42v13ZM368.73,1370.01v-39.29h17.41c3.5,0,6.16.36,7.98,1.06,1.82.7,3.27,1.95,4.36,3.73,1.09,1.78,1.63,3.76,1.63,5.92,0,2.79-.91,5.14-2.71,7.05-1.8,1.91-4.58,3.12-8.35,3.64,1.38.66,2.42,1.32,3.14,1.96,1.52,1.39,2.95,3.14,4.3,5.23l6.79,10.7h-6.49l-5.19-8.18c-1.51-2.37-2.76-4.17-3.74-5.42-.99-1.25-1.87-2.12-2.64-2.62-.77-.49-1.56-.84-2.37-1.04-.59-.12-1.55-.18-2.89-.18h-6.02v17.45h-5.21ZM325.39,1355.81c0,3.64.77,6.36,2.31,8.16,1.54,1.8,3.36,2.7,5.45,2.7s3.9-.86,5.39-2.58c1.47-1.72,2.21-4.34,2.21-7.87,0-3.88-.75-6.73-2.26-8.55-1.5-1.82-3.36-2.73-5.56-2.73s-3.94.87-5.39,2.62c-1.44,1.75-2.16,4.5-2.16,8.26ZM340.64,1370.01v-3.61c-1.8,2.81-4.45,4.22-7.96,4.22-2.27,0-4.35-.62-6.25-1.87-1.9-1.24-3.37-2.99-4.43-5.22-1.04-2.24-1.56-4.81-1.56-7.72s.48-5.4,1.42-7.72c.95-2.3,2.37-4.08,4.26-5.3,1.88-1.23,4.01-1.85,6.34-1.85,1.72,0,3.25.37,4.58,1.09,1.34.72,2.42,1.67,3.26,2.83v-14.13h4.83v39.29h-4.5ZM294.87,1355.78c0,3.64.8,6.37,2.39,8.17,1.6,1.81,3.6,2.72,6.03,2.72s4.39-.91,5.99-2.73c1.59-1.82,2.39-4.59,2.39-8.31,0-3.51-.8-6.17-2.41-7.97-1.6-1.81-3.59-2.72-5.97-2.72s-4.43.9-6.03,2.7c-1.59,1.8-2.39,4.52-2.39,8.15ZM289.93,1355.78c0-5.26,1.46-9.15,4.4-11.69,2.44-2.1,5.43-3.15,8.95-3.15,3.9,0,7.11,1.28,9.59,3.84,2.48,2.55,3.72,6.09,3.72,10.6,0,3.66-.55,6.53-1.65,8.62-1.1,2.09-2.7,3.72-4.8,4.88-2.09,1.16-4.39,1.74-6.87,1.74-3.99,0-7.21-1.27-9.67-3.82-2.46-2.55-3.69-6.23-3.69-11.02ZM264.35,1355.78c0,3.64.8,6.37,2.39,8.17,1.6,1.81,3.6,2.72,6.03,2.72s4.39-.91,5.99-2.73c1.59-1.82,2.39-4.59,2.39-8.31,0-3.51-.8-6.17-2.41-7.97-1.6-1.81-3.59-2.72-5.97-2.72s-4.43.9-6.03,2.7c-1.59,1.8-2.39,4.52-2.39,8.15ZM259.42,1355.78c0-5.26,1.46-9.15,4.4-11.69,2.44-2.1,5.43-3.15,8.95-3.15,3.9,0,7.11,1.28,9.59,3.84,2.48,2.55,3.72,6.09,3.72,10.6,0,3.66-.55,6.53-1.65,8.62-1.1,2.09-2.7,3.72-4.8,4.88-2.09,1.16-4.39,1.74-6.87,1.74-3.99,0-7.21-1.27-9.67-3.82-2.46-2.55-3.69-6.23-3.69-11.02ZM228.59,1370.01v-39.29h26.5v4.61h-21.29v12.24h18.44v4.61h-18.44v17.83h-5.21ZM207.7,1365.71l.66,4.26c-1.35.28-2.57.43-3.63.43-1.75,0-3.1-.27-4.07-.83-.96-.56-1.64-1.28-2.03-2.19-.39-.91-.59-2.81-.59-5.71v-16.41h-3.57v-3.73h3.57v-7.04l4.83-2.9v9.94h4.83v3.73h-4.83v16.68c0,1.38.08,2.27.26,2.66.16.39.44.7.82.94.38.23.93.35,1.65.35.53,0,1.23-.06,2.1-.19ZM170.33,1353.06h15.86c-.21-2.4-.82-4.19-1.82-5.39-1.53-1.86-3.52-2.79-5.96-2.79-2.21,0-4.07.74-5.58,2.22-1.5,1.48-2.33,3.47-2.5,5.95ZM186.13,1360.8l4.99.66c-.78,2.9-2.23,5.16-4.35,6.76-2.12,1.6-4.83,2.4-8.13,2.4-4.15,0-7.44-1.28-9.88-3.84-2.43-2.55-3.65-6.15-3.65-10.76s1.23-8.49,3.69-11.12c2.46-2.64,5.65-3.96,9.57-3.96s6.9,1.29,9.3,3.88c2.4,2.59,3.61,6.23,3.61,10.92,0,.28,0,.71-.03,1.28h-21.21c.18,3.12,1.06,5.51,2.65,7.17,1.58,1.66,3.57,2.49,5.93,2.49,1.77,0,3.27-.47,4.52-1.4,1.25-.93,2.24-2.42,2.97-4.47ZM154.52,1370.01v-28.48h4.83v28.48h-4.83ZM154.52,1336.22v-5.49h4.83v5.49h-4.83ZM120.71,1365.41h8.38c2.59,0,4.62-.24,6.09-.72,1.47-.48,2.64-1.16,3.52-2.04,1.23-1.23,2.19-2.9,2.87-4.98.69-2.09,1.03-4.61,1.03-7.58,0-4.12-.68-7.28-2.02-9.49-1.34-2.21-2.98-3.69-4.91-4.44-1.39-.54-3.63-.8-6.72-.8h-8.24v30.07ZM115.5,1370.01v-39.29h13.53c3.05,0,5.39.18,7,.56,2.25.52,4.17,1.46,5.76,2.82,2.08,1.76,3.62,3.99,4.65,6.71,1.03,2.72,1.55,5.84,1.55,9.35,0,2.98-.35,5.62-1.04,7.93-.7,2.3-1.59,4.22-2.68,5.72-1.1,1.51-2.29,2.7-3.58,3.56-1.29.87-2.85,1.53-4.68,1.98-1.84.45-3.94.67-6.32.67h-14.17Z"/>
</svg>