<?xml version="1.0" encoding="UTF-8"?>
<svg id="Layer_1" xmlns="http://www.w3.org/2000/svg" version="1.1" viewBox="0 0 1135.86 1702.79">
  <!-- Generator: Adobe Illustrator 29.5.1, SVG Export Plug-In . SVG Version: 2.1.0 Build 141)  -->
  <defs>
    <style>
      .st0 {
        fill: #fff;
      }
    </style>
  </defs>
  <path class="st0" d="M647.93,1537.15c180.55-37.46,312.63-197.04,314.42-381.44,1-103.16.18-206.34.17-309.51-.01-101.51.1-203.01-.03-304.52-.32-238.04-207.37-421.44-443.48-392.92-193.78,23.4-344.44,191.41-345.32,387.23-.93,206.34-1.19,412.69,0,619.02,1.43,247.28,232.07,432.39,474.24,382.15M188.35,1158.65c-.2-45.86.02-91.73-.31-137.59-.05-7.57,2.39-9.75,9.74-9.49,14.27.51,28.59-.18,42.85.43,2.58.11,7.16,4.02,7.17,6.2.35,54.17.21,108.34.11,162.51,0,.92-.57,1.84-1.13,3.5h-56.72c-.61-8.65-1.69-17.1-1.72-25.56ZM448.42,1509.6c-73.11-9.47-203.85-126.71-224.79-202.9,63.59,3.26,116.96,26.82,161.06,71.22,35.6,35.84,67,101.1,63.73,131.68ZM557.63,1532.49c-28.74-4.87-57.52-9.53-86.14-14.99-2.64-.5-5.61-5.93-6.21-9.45-15.29-89.09-63.47-153.61-144.58-193.2-29.94-14.61-61.93-22.29-95.36-22.69-7.59-.09-11.12-2.99-13.53-9.96-9.13-26.43-16.62-53.19-20.23-82.86,91.12-4.79,171.79,20,241.49,77.27,79.22,65.1,120.72,149.79,127.36,251.47-.93,1.47-1.86,2.94-2.79,4.41ZM438.28,1261.01c37.52-25.85,76.95-43.38,121.56-51.36v221.05c-13.69-32.65-29.07-64.02-49.31-92.86-20.13-28.69-44.18-53.75-72.25-76.82ZM552.28,1195.57c-43.52,9.05-83.55,26.41-120.37,51.35-2.78,1.88-8.69,2.67-11.13,1.01-36.39-24.81-75.78-42.81-118.44-53.73-.87-.22-1.58-1.09-3.35-2.37,73.25-70.44,159.43-112.82,261.6-127.49,0,14.9,0,27.82,0,40.73,0,26.62-.19,53.24.09,79.85.07,6.41-1.67,9.25-8.4,10.65ZM491.79,1051.14c.25,8.79-1.67,13.89-11.16,14.66-3.82.31-7.53,1.92-12.9,3.37,0-15.9.11-30.41-.04-44.91-.11-10.3-5.23-17.7-14.3-22.25-8.8-4.42-17.46-3.54-25.49,2.02-7.72,5.34-11.01,12.94-10.95,22.27.11,17.63-.52,35.28.25,52.88.38,8.67-2.26,13.68-10.28,16.62-4.2,1.54-8.01,4.18-12.99,6.85-.33-4.22-.7-6.77-.7-9.32-.04-40.25-.1-80.5.11-120.74.02-3.69.78-8.41,3.1-10.88,14.5-15.54,29.53-30.58,46.01-47.43,12.39,12.85,23.1,25.53,35.47,36.31,10.77,9.38,14.74,19.56,13.98,33.75-1.2,22.22-.74,44.57-.11,66.83ZM452.7,1070.21c-.04,2.06-2.18,4.87-4.12,5.93-4.59,2.52-9.65,4.2-16.56,7.07,0-21.17-.47-40.39.46-59.54.16-3.26,6.72-9.05,9.63-8.65,3.91.54,9.92,5.75,10.19,9.32,1.17,15.21.71,30.57.4,45.86ZM560.84,609.72c-.78,23.93-.24,47.91-.27,71.87,0,3.19-.29,6.37-2.38,10.2-1.59-2.64-3.21-5.27-4.76-7.94-32.64-55.89-81.2-86.43-145.73-91.43-14.87-1.15-16.85.95-16.22,15.98,3.53,85.33,72.34,158.47,157.44,166.7,9.41.91,11.94,3.84,11.9,13.15-.36,83.52-.34,167.05-.01,250.57.04,8.64-2.78,11.41-11.06,12.41-13.8,1.68-27.43,4.78-42.17,7.48v-77.74c9.2,9.08,17.05,16.89,24.98,24.62,2.61,2.55,5.07,5.81,8.25,7.02,2.45.93,6.7.05,8.69-1.69,1.48-1.3,1.36-5.5.57-7.97-.74-2.32-3.18-4.16-5.06-6.04-31.06-31.06-62.11-62.12-93.24-93.11-8.46-8.43-10.33-8.42-18.68-.1-31.11,31-62.16,62.07-93.23,93.12-.94.94-2.49,1.78-2.69,2.87-.74,4.02-1.04,8.12-1.5,12.2,4.09-.69,9.5.05,12.05-2.31,9.44-8.74,17.94-18.5,26.8-27.87.9.43,1.8.87,2.7,1.3.31,2.7.87,5.4.87,8.11.05,37.6-.1,75.21.16,112.81.04,6.08-2.04,9.55-7.13,12.79-14.74,9.42-29.07,19.47-44.63,30.01-1.1-14.54-4.23-28.06,9.74-37.58,2.96-2.02,6.05-4.75,7.48-7.89,1.39-3.04.73-7.02.97-10.59-3.57,0-7.28-.59-10.66.23-2.27.55-4.07,3.09-8.36,6.6,0-13.86.23-25.55-.09-37.24-.17-6.46,2.65-16.39-7.77-16.1-9.59.26-6.13,9.86-6.85,15.99-.26,2.17-.44,4.35-.81,8.21-3.44-2.74-5.42-5.43-7.9-6.03-3.38-.81-7.15-.03-10.75.06.14,3.34.07,6.7.53,9.99.15,1.09,1.53,2.21,2.6,2.93,15.02,10.09,18.75,24.53,16.35,41.5-.42,2.94-.58,6.09.01,8.96,5.28,25.85-5.54,44.18-25.71,59.33-6.73,5.05-12.65,3.92-18.44,1.55-2.28-.94-3.39-7.06-3.41-10.82-.22-51.91-.02-103.82-.31-155.73-.04-7.25,2.06-10.18,9.28-12.18,41.59-11.56,77.02-32.72,102.03-68.91,23.99-34.72,29.03-72,11.45-110.66-9.47-20.82-20.84-40.94-32.98-60.35-41.17-65.83-64.26-137.01-65.99-214.85-.09-3.89-.01-7.78-.01-12.27,3.82-.25,6.73-.59,9.63-.59,40.93-.04,81.86-.22,122.79.23,5.05.06,11.1,2.4,14.93,5.71,32.99,28.51,70.8,45.85,114.27,49.73,9.84.88,12.67,3.96,12.35,13.8ZM559.26,759.46c-66.55,3.73-151.1-62.95-151.69-150.98,73.24-.59,150.86,67.72,151.69,150.98ZM642.46,931.8c.09,14.95-.69,29.99.63,44.84,1.28,14.43,4.74,28.66,7.35,43.57-21.77,5.99-46.93-3.33-61.84-22.76-15.61-20.34-17.67-47.62-4.95-69.36,11.18-19.12,28.08-29.54,50-32.19,6.35-.77,9.24,1.1,8.92,7.98-.43,9.29-.16,18.61-.11,27.92ZM645.41,880.97c-25.88-.72-47.62,7.22-65.22,26.28-.84.91-2,1.52-3.98,3-.35-2.73-.77-4.52-.77-6.3-.04-39.57.04-79.14-.12-118.71-.02-5.74.77-9.18,7.74-9.75,34.73-2.83,65.77-15.37,93.32-36.65,1.48-1.14,3.17-2,4.94-3.1,9.93,35.82,25.55,47.41,63.37,47.47,32.59.05,65.2-.67,97.74.46,9.71.34,20.54,3.84,28.57,9.28,15.84,10.72,15.38,31.25-.71,41.68-7.68,4.98-17.65,7.98-26.84,8.71-17.18,1.38-34.56.05-51.84.59-23.23.73-41.75,9.51-52.36,31.75-1.31,2.75-6.58,5.04-10.07,5.1-27.92.46-55.87.96-83.78.19ZM728.54,608.58c-.98,81.9-76.52,151.98-151.41,151.46-2.16-77.17,73.63-152.47,151.41-151.46ZM759.99,871.34c8.3-8.6,18.76-12.29,30.59-12.31,17.3-.04,34.61.12,51.91-.1,16.22-.21,30.78-5,42.44-16.85,17.18-17.46,16.31-43.02-2.11-59.21-12.09-10.63-26.49-14.78-42.37-14.75-33.61.05-67.25.68-100.82-.4-10.1-.32-21.26-3.56-29.8-8.88-16.15-10.06-16.45-31.17-.55-41.64,8.37-5.51,19.58-9.1,29.59-9.29,48.9-.94,97.84-.81,146.75-.28,24.86.27,46.08-5.69,61.44-27.75v200.54h-192.87c2.22-3.54,3.56-6.74,5.8-9.07ZM922.27,682.87c-9.1,5.59-20.99,8.96-31.7,9.18-47.24.96-94.51.35-141.76.48-9.88.03-19.77.83-31.19,1.34,1.68-3.04,3.15-5.73,4.63-8.4,13.26-23.98,20.8-49.64,22.27-77.01.8-14.79-1.61-17.22-16.22-16.1-64.14,4.93-112.52,35.24-145.33,90.52-1.77,2.97-3.4,6.03-6.89,8.41v-93.54c8.83-1.2,17.39-2.1,25.86-3.58,37.64-6.58,70.59-22.86,99.53-47.77,3.86-3.32,9.75-5.57,14.86-5.91,12.59-.83,25.28-.1,37.92-.33,5.63-.1,7.71,2.17,7.58,7.68-.27,11.31-.19,22.63-.23,33.94-.11,31.68,15.91,48.72,48.18,49.61,27.93.77,55.9.3,83.86.28,11.39,0,21.77,2.84,30.42,10.47,13.77,12.15,13.78,31.14-1.8,40.71ZM722.99,524.85c7.49-10.95,14.43-21.08,20.81-30.41,10.78,10.6,20.81,20.44,30.95,30.41h-51.76ZM577.2,581.11c-3.38-79.26,72.08-174.15,175.15-176.61,2.38,84.37-77.08,175.76-175.15,176.61ZM614.78,450.17c-4.27-15.75-8.5-31.3-12.7-46.86-4.51-16.74-3.79-15.77,9.73-25.64,9.62-7.03,14.81-5.11,21.9,2.9,9.63,10.88,20.55,20.61,31.17,31.09-17.2,13.22-33.12,25.46-50.1,38.51ZM568.39,375.59c-38.38.31-70.86-31.64-71.17-70.02-.32-39.47,31.06-71.43,70.3-71.61,39.29-.18,71.26,31.57,71.25,70.75,0,38.5-31.85,70.57-70.38,70.88ZM516.86,373.69c5.81,6.82,21.6,5.08,19.94,15.88-3.14,20.42-10.15,40.24-15.64,60.62-16.86-12.97-32.77-25.2-49.59-38.13,12.57-12.7,25.02-25.51,37.86-37.92,1.43-1.38,6.42-1.65,7.43-.45ZM559.68,580.75c-87.77,1.41-176.17-80-176.57-175.3,72.63-3.9,173.18,65.7,176.57,175.3ZM392.99,495.66c5.43,7.91,12.27,17.89,19.85,28.94h-48.82c8.59-8.58,18.77-18.75,28.98-28.94ZM567.96,527.28c-10.11-17.83-21.76-38.17-33.08-58.69-1.26-2.28-1.44-5.79-.77-8.39,5.36-20.93,11.2-41.73,16.52-62.67,1.48-5.8,3.85-7.96,10.24-7.68,22.37.98,22.39.69,28.33,22.87,4.13,15.41,8.38,30.79,12.25,46.27.74,2.96,1.08,6.89-.27,9.35-11.27,20.56-22.97,40.89-33.22,58.94ZM575.41,1009.36c14.19,12.05,27.94,22.62,45.63,25.55,10.01,1.65,20.43.69,30.63,1.37,3.11.21,7.76,1.04,8.92,3.13,16.37,29.64,39.51,52.32,71.7,69.32-4.5.7-6.45,1.26-8.4,1.26-45.89.06-91.79-.09-137.68.23-7.89.05-11.14-1.68-10.99-10.39.5-30.15.19-60.31.19-90.47ZM576.29,1530.35v-52.99c8.02,17.16,15.82,33.84,23.98,51.32-7.49.52-15.28,1.06-23.98,1.67ZM576.02,1393.82v-219.17c.81-.6,1.62-1.21,2.43-1.81,6.82,7.26,14.97,13.67,20.24,21.92,28.85,45.17,30.3,92.66,8.52,140.78-9.22,20.37-21.08,39.56-31.2,58.29ZM797.51,1452.41c-49.7,37.63-105.08,62.12-166.65,72.7-7.82,1.34-12.22-.64-16.86-6.53-32.39-41.15-34.09-112.42-4.12-158.13,33.05-50.4,34.95-103.35,11.01-157.82-2.78-6.33-6.79-12.21-10.8-17.9-3.8-5.38-8.34-10.24-14.3-17.44h8.85c60.9.01,121.8.21,182.69-.16,8.92-.05,11.38,2.52,11.1,11.27-.64,19.52-.2,39.08-.2,60.76-30.89-27.69-62.96-33.53-95.66-8.49-22.61,17.31-30.9,41.99-23.26,69.55,9.54,34.45,34.47,50.55,70.83,51.61-8.98,21.4-9.82,42.02,2.21,61.71,12,19.65,30.28,29.13,54.8,30.83-4.2,3.51-6.83,5.9-9.65,8.03ZM798.12,1283.66c-.01,28.57-24.16,52.67-52.88,52.79-29.37.12-53.18-23.8-53.08-53.34.09-29.19,23.47-52.56,52.64-52.61,29.48-.06,53.34,23.73,53.32,53.16ZM805.54,1428.52c-25.94.03-46.94-20.89-47.02-46.84-.08-26.01,20.75-47.1,46.63-47.23,26.47-.12,47.73,21.03,47.59,47.34-.14,25.86-21.19,46.69-47.2,46.72ZM869.51,1381.03c-2.87-10.72-5.15-19.26-7.64-28.58,9.29-1.42,18.56-2.84,30.48-4.66-8.25,12.01-15.07,21.92-22.84,33.24ZM866.33,1336.42c-29.2.13-53.34-24.1-53.17-53.37.16-29.03,23.77-52.52,52.83-52.55,29.61-.03,53.23,23.63,53.1,53.21-.12,28.91-23.82,52.59-52.76,52.71ZM931.09,1260.23c-11.96-23.9-28.15-39.4-52.98-43.77-24.75-4.35-45.54,3.86-64.97,23.48,0-24.61-.14-46.06.25-67.5.03-1.73,3.64-4.85,5.6-4.86,40.56-.29,81.11-.3,121.67.02,2.04.02,5.88,3.61,5.82,5.43-1.03,28.9-6.2,57.1-15.39,87.2ZM947.7,1143.68c.88,7.09-2.3,9.01-9.12,9-118.02-.16-236.04-.15-354.06.01-6.81.01-9.44-1.89-9.23-9,.64-22.03-2.53-18.79,18.19-18.84,56.18-.14,112.37-.05,168.55-.05v.04c57.85,0,115.69.22,173.54-.22,9.5-.07,13.62,2.36,12.12,12.08-.35,2.27-.28,4.67,0,6.97ZM874.36,1108.89c30.43-17.09,54.17-40.4,70.56-71.12.89.26,1.78.52,2.66.78,0,22.08.11,44.16-.2,66.24-.02,1.71-2.93,4.84-4.53,4.86-22.69.32-45.38.22-68.49-.76ZM947.86,906.73c-1.38,28.53,1.2,57.66-3.64,85.53-12.91,74.39-81.01,123.54-157.33,116.71-71.33-6.39-128.53-69.16-129.64-142.49-.31-20.29.29-40.6-.26-60.88-.22-8.08,2.55-10.12,10.29-10.07,45.21.31,90.43.15,135.64.15,44.58.03,89.17.25,133.75-.17,8.79-.08,11.62,2.36,11.2,11.22ZM947.61,641.82c0,.82-.84,1.64-1.92,3.6-15.36-25.8-39.5-29.6-66.02-28.72-21.28.7-42.6.41-63.89-.02-7.22-.14-14.66-1.2-21.53-3.34-10.9-3.4-17.04-11.6-17.39-23.1-.43-14.3-.03-28.62-.22-42.92-.07-5.08,1.89-7.11,7.03-7.1,52.25.09,104.49.07,156.74,0,4.81,0,7.37,1.34,7.35,6.77-.16,31.61-.08,63.23-.16,94.84ZM925.23,413.18c12.63,34.57,20.17,70.26,21.63,107.13.05,1.26-.44,2.54-.86,4.74-3.28.15-6.49.41-9.71.42-42.91.03-85.83.2-128.74-.23-4.65-.05-10.26-2.53-13.72-5.72-12.46-11.5-24.02-23.96-36.26-35.7-4.44-4.26-4.64-7.77-3.12-13.81,5.5-21.81,10.56-43.81,14.06-66.01,2.16-13.71-1.31-17.05-14.73-14.83-22.5,3.72-44.69,9.31-67.07,13.86-3.16.64-7.91,1.27-9.72-.44-14.48-13.66-28.43-27.88-42.59-41.97,4.56-8.23,8.26-16.01,13.13-22.98,1.25-1.8,6.43-2.1,9.33-1.33,68.44,18.16,136.82,36.56,205.22,54.91,17.98,4.82,36.04,9.37,53.89,14.62,3.58,1.05,8.09,4.13,9.26,7.33ZM813.4,251.64c43.43,36.99,77.22,81.36,100.67,133.47.37.83.21,1.9.46,4.57-28.17-7.49-55.08-14.61-81.97-21.81-56.83-15.23-113.61-30.62-170.5-45.61-7.02-1.85-9.52-4.35-8.9-12.08,1.69-20.91,1.23-20.98,22.37-26.65,42.05-11.28,84.09-22.62,126.23-33.57,3.57-.93,9.07-.5,11.65,1.69ZM702.62,185.84c32.23,11.9,61.92,28.43,91.78,50.34-31.06,8.37-59.2,15.97-87.34,23.54-16.99,4.57-34.04,8.96-51,13.68-4.83,1.35-7.88,1.06-10.28-4.17-3.15-6.87-7.38-13.24-11.52-20.48,20.46-20.39,40.86-40.83,61.48-61.04,1.52-1.49,5.02-2.55,6.89-1.87ZM618.71,164.49c20.76,3.74,41.43,8,63.51,12.39-21.27,21.49-40.5,40.93-59.99,60.63-7.62-4.47-15.82-9.27-24.72-14.49,4.91-18.15,9.67-36.37,14.94-54.43.55-1.89,4.4-4.43,6.26-4.09ZM598.5,161.85c-5.2,19.27-9.94,37.06-14.9,54.78-.35,1.24-2.25,2.86-3.47,2.9-8.25.25-16.52.31-24.77-.07-1.26-.06-3.06-2.48-3.51-4.12-4.76-17.22-9.29-34.51-14.35-53.5h60.99ZM454.78,176.69c20.69-4.13,41.35-8.43,62.11-12.14,1.99-.36,6.13,2.54,6.76,4.67,5.24,17.77,9.88,35.71,14.71,53.61-7.54,4.6-14.45,9.1-21.66,13.01-1.77.96-5.54.99-6.76-.21-18.7-18.26-37.12-36.8-55.61-55.28.15-1.22.3-2.45.45-3.67ZM348.54,231.01c27.08-14.7,54.12-29.5,81.37-43.89,2.59-1.37,7.96-1.48,9.72.22,20.99,20.27,41.53,40.99,61.98,61.38-4.42,7.85-8.04,14.93-12.36,21.57-1.24,1.91-4.87,3.98-6.75,3.49-46.16-12.07-92.23-24.48-139.72-39.47,1.92-1.11,3.82-2.25,5.77-3.31ZM224.33,379.48c23.14-48.74,55.23-90.68,95.75-126.29,4.82-4.24,9.1-5.02,15.28-3.32,46.15,12.66,92.36,25.09,138.68,37.14,7.34,1.91,9.23,4.97,8.69,12.36-1.52,20.7-1.15,20.71-21.56,26.18-76.72,20.56-153.43,41.14-230.14,61.69-2.8.75-5.67,1.24-10.71,2.33,1.86-4.69,2.78-7.47,4.02-10.09ZM192.34,486.36c4.96-23.73,11.03-47.24,17.54-70.6,1.13-4.05,6.18-8.81,10.32-9.94,86.31-23.55,172.77-46.54,259.13-69.92,6.21-1.68,8.95-.28,11.46,5.38,2.8,6.3,6.82,12.07,10.96,19.19-14.18,14.08-28.36,28.51-43.09,42.36-1.76,1.66-6.59.72-9.8.07-22.06-4.52-43.94-10.05-66.13-13.68-13.97-2.28-17.22.73-15.17,14.3,3.31,21.9,8,43.65,13.51,65.11,1.83,7.12,1.69,11.24-3.73,16.3-12.15,11.35-23.47,23.6-35.53,35.06-2.84,2.7-7.27,5.25-10.98,5.27-45.92.34-91.85.21-137.78.16-.94,0-1.88-.4-4.54-.99,1.19-12.65,1.24-25.63,3.84-38.07ZM200.1,540c20.94.72,41.92.4,62.87.12,6.33-.08,8.74,1.83,8.83,8.48,1.15,83,25.01,159.11,69.6,228.97,8.4,13.16,16.27,26.73,23.49,40.57,27.7,53.12,19.44,97.95-25.36,137.97-21.47,19.17-46.51,31.61-76.25,38.6,0-28.49-.14-55.38.21-82.27.04-2.79,2.52-5.99,4.68-8.22,10.63-11,21.55-21.73,32.34-32.58,3.63-3.65,7.71-7.8,2.92-12.75-5.05-5.23-9.59-1.56-13.6,2.46-8.07,8.1-16.19,16.15-26.58,23.15,0-15.46,1.67-31.15-.36-46.35-3.96-29.63,4.16-53.11,29.03-70.43,4.03-2.81,7.85-6.51,10.4-10.64,1.69-2.74.95-6.98,1.3-10.55-3.8.06-8.93-1.44-11.17.46-8.61,7.28-16.27,15.68-24.34,23.61-.86.84-2.01,1.38-4.86,3.28,0-11.71,0-21.83,0-31.95,0-8.32-.08-16.64.01-24.95.06-5.55-1.47-11.23-7.62-10.18-2.99.51-7.06,6.82-7.12,10.57-.55,34.92-.34,69.86-.35,104.8,0,3.81,0,7.61,0,11.42-1.14.64-2.28,1.29-3.42,1.93-5.45-6.07-10.83-12.19-16.37-18.17-2.94-3.17-5.71-6.88-9.37-8.86-2.88-1.55-6.99-.82-10.55-1.11.15,3.79-1.25,8.97.7,11.13,10.23,11.35,21.11,22.16,32.19,32.7,4.96,4.71,7.02,9.62,6.97,16.55-.31,39.59-.36,79.18.02,118.77.08,8.32-2.47,11.07-10.77,10.68-12.95-.62-25.97-.66-38.91-.02-8.4.41-10.67-2.47-10.63-10.71.3-64.54.16-129.09.15-193.63,0-80.18.14-160.36-.22-240.54-.04-9.49,2.41-12.62,12.14-12.29Z"/>
  <path class="st0" d="M1080.13,1014.42c-.01-47.92-.01-95.84-.02-143.76,0-29.28-.05-58.57-.01-87.85,0-5.65-1.67-11.01-7.92-9.87-2.91.53-5.06,6.21-7.12,9.8-.72,1.26-.12,3.26-.12,4.93-.01,130.78.03,261.57-.1,392.35-.02,19.62.28,39.35-1.53,58.85-11.94,128.12-72.56,229.77-173.26,307.21-173.13,133.13-416,145.77-601.03,29.7-142.46-89.37-219.59-217.55-218.38-389.16.94-132.78.17-265.56.15-398.34,0-2.99.76-6.44-.45-8.85-1.4-2.8-4.64-6.52-7.02-6.47-2.45.04-5.46,3.78-7.01,6.58-.48.87-.62,1.93-.62,3.07,0,1.56.26,3.26.26,4.8-.01,139.1-.1,278.21.01,417.31.06,80.53,21.14,155.43,63.68,223.65,72.38,116.09,176.97,189.83,308.57,222.61,176.48,43.97,339.67,12.39,482.24-102.39,110.19-88.72,168.54-204.84,169.74-347.18v-10.06c-.29-58.96-.04-117.93-.05-176.9"/>
  <path class="st0" d="M1039.92,680.44c-1.21,0-2.24,1.03-2.24,2.24,0,1.21,1.03,2.24,2.24,2.24l58.56-.02v19.71c0,1.21,1.04,2.24,2.34,2.24,1.21,0,2.24-1.03,2.24-2.24l-.02-43.9c0-1.21-1.03-2.24-2.24-2.24-1.31,0-2.34,1.03-2.34,2.24v19.71s-58.55.02-58.55.02ZM1038.8,597.3c-.19.09-.28.28-.37.37-.56.47-.84,1.03-.84,1.77,0,1.31,1.03,2.34,2.24,2.34l60.24.06c1.21,0,2.24-1.02,2.24-2.33,0-1.21-1.03-2.24-2.24-2.24l-53.24-.05,54.96-39.55c1.03-.65,1.22-2.15.56-3.17-.65-.84-1.59-1.12-2.52-.84l-59.96-.06c-1.21,0-2.24,1.03-2.24,2.24,0,1.21,1.03,2.24,2.24,2.24l53.52.05-54.59,39.17ZM1090.54,467.74l-33.18,17.5-3.34-26.22,36.51,8.73ZM1038.48,495.17c-.88.49-1.32,1.49-1.21,2.32-.06.29.06.46.11.83.62,1.05,2.08,1.43,3.13.83l57.34-30.17c.8-.38,1.24-1.38,1.11-2.4-.12-.93-.79-1.78-1.67-2.05l-63.07-14.86c-1.17-.32-2.48.5-2.82,1.68.13.27.08.65.11.83.12.93.78,1.69,1.75,1.94l16.02,3.8,3.76,29.56-14.56,7.69ZM1059.22,374.6c-7.1,2.87-15.21-.5-18.22-7.45l-.31-.78-5.88-14.55,26.15-10.56,6.05,14.98c2.9,7.19-.52,15.42-7.79,18.36ZM1019.92,391.28c-1.52,1.72-1.65,3.89-1.2,5.02l.07.17c.21.52.47.92.51,1.01.89.95,2.31.98,3.33.27.81-.73.91-1.98.44-2.9.05-.12.22-.69,1.12-1.46,1.12-.96,3.15-2.18,6.7-3.61,6.84-2.76,9.58-8.7,10.22-13.6.03-.42.01-.71.08-1.04,5.15,4.77,12.77,6.43,19.7,3.63,9.61-3.88,14.21-14.7,10.36-24.23l-6.82-16.89-.1-.26-.07-.17c-.51-1-1.81-1.49-2.85-1.07l-56.46,22.81c-1.13.45-1.69,1.79-1.24,2.92.49,1.21,1.83,1.78,2.95,1.33l23.99-9.69,5.95,14.72c.03.09-.02.21,0,.5.28,1.2.62,4.78-.2,8.24-.91,3.49-2.77,6.86-7.19,8.64-5.11,2.06-7.72,3.82-9.3,5.67ZM964.45,249.98h0c-11.64,8.76-13.99,25.37-5.28,36.94,8.82,11.72,25.43,14.06,37.07,5.3l29.33-22.07c.97-.73,1.17-2.17.39-3.21-.73-.97-2.17-1.17-3.14-.44l-29.33,22.07c-9.63,7.24-23.29,5.25-30.66-4.39-7.11-9.61-5.25-23.29,4.38-30.53l29.33-22.07c.97-.73,1.17-2.17.39-3.21-.73-.97-2.17-1.17-3.14-.44l-29.33,22.07ZM924.2,169.42l-12.19,35.47-20.39-16.82,32.58-18.65ZM905.06,225.07c-.31.96.06,1.99.71,2.52.16.25.36.3.65.53,1.17.34,2.49-.38,2.85-1.54l21.12-61.26c.32-.83-.04-1.85-.84-2.51-.72-.59-1.8-.76-2.62-.35l-56.13,32.37c-1.07.57-1.46,2.06-.9,3.15.28.11.5.42.65.54.72.59,1.73.7,2.61.21l14.27-8.2,22.98,18.96-5.34,15.57ZM811.54,157.1c-.61,1.05-.23,2.46.82,3.06,1.05.61,2.45.23,3.06-.82l29.31-50.7,17.06,9.87c1.05.61,2.45.23,3.11-.9.61-1.05.23-2.45-.82-3.06l-38-21.97c-1.05-.61-2.46-.23-3.06.82-.66,1.13-.28,2.54.77,3.14l17.06,9.86-29.31,50.7ZM703.3,103.73h0c3.84,5.74,10.55,13.21,20.03,16.38,6.22,2.01,12.42,1.96,17.58.29,5.15-1.66,9.43-5.18,11.03-10.14,1.61-4.98.18-9.96-3.05-13.93-3.2-4.08-8.13-7.64-13.98-10.8l-.18-.06c-5.25-2.88-9.39-5.87-11.81-9.01-2.42-3.14-3.1-5.91-2.18-9.05,1.03-3.18,3.79-5.63,7.64-6.94,3.83-1.22,8.85-1.25,13.91.39,6.84,2.21,11.09,7.3,14.94,12.08.69.91,2.02,1.05,2.84.33.94-.78,1.05-2.02.36-2.93-3.86-4.77-8.7-10.75-16.87-13.39-5.87-1.9-11.65-1.9-16.49-.32-4.82,1.56-8.72,4.82-10.24,9.51-1.49,4.62-.12,9.19,2.9,12.9,2.99,3.81,7.54,7.05,12.97,9.98l.18.06c5.67,3.11,10.1,6.41,12.76,9.71,2.63,3.4,3.46,6.61,2.31,10.17-1.12,3.45-4.05,6.14-8.32,7.5-4.18,1.4-9.58,1.4-15-.35-8.12-2.53-14.44-9.37-17.86-14.59-.57-.97-1.84-1.28-2.84-.62-.88.6-1.19,1.87-.62,2.84ZM610.11,95.45c-.12,1.21.72,2.23,1.83,2.43l.19.02.28.03,33.18,3.26c1.3.13,2.33-.8,2.45-2.01.13-1.3-.7-2.41-2-2.54l-31.14-3.06,2.52-25.66,27.24,2.68c1.21.12,2.33-.8,2.45-2.01.13-1.3-.79-2.42-2-2.54l-27.24-2.68,2.53-25.75,31.14,3.06c1.3.13,2.33-.8,2.46-2.1.12-1.21-.71-2.32-2.01-2.45l-33.28-3.27-.19-.02c-1.21-.12-2.33.8-2.45,2.01l-5.96,60.61ZM542.39,50.93c.58,7.64-5.09,14.34-12.62,15.1l-.84.06-15.65,1.19-2.13-28.13,16.11-1.22c7.73-.59,14.54,5.17,15.13,13ZM546.36,93.44c1.18,1.97,3.21,2.75,4.42,2.66h.19c.56-.06,1.02-.18,1.11-.19,1.18-.56,1.64-1.9,1.26-3.09-.45-1-1.61-1.47-2.63-1.3-.1-.09-.59-.42-1.05-1.51-.57-1.36-1.12-3.66-1.41-7.48-.56-7.36-5.39-11.77-9.86-13.86-.39-.16-.67-.23-.97-.4,6.11-3.46,10-10.22,9.43-17.67-.78-10.34-9.7-18-19.95-17.22l-18.16,1.38-.28.02h-.19c-1.11.19-1.96,1.29-1.88,2.41l4.61,60.72c.09,1.21,1.19,2.16,2.4,2.07,1.3-.1,2.25-1.2,2.16-2.41l-1.96-25.8,15.83-1.2c.09,0,.19.08.48.15,1.23.09,4.75.86,7.79,2.69,3.05,1.92,5.7,4.72,6.06,9.47.42,5.5,1.3,8.52,2.58,10.58ZM385.03,125.81l-17.74-53.36,9.4-3.12c14.74-4.8,30.66,3.1,35.58,17.9,4.89,14.71-3.13,30.57-17.84,35.46l-9.39,3.12ZM395.86,127.03c17.11-5.69,26.43-24.14,20.74-41.25-5.69-17.11-24.26-26.48-41.36-20.8l-11.34,3.77-.27.09c-1.15.38-1.8,1.68-1.42,2.83l19.21,57.79c.38,1.15,1.56,1.74,2.66,1.48l.35-.12,11.43-3.8ZM263.64,156.3h0c-8.58-13.69-4.84-30.59,7.75-38.47,12.19-7.64,29.02-3.64,37.68,10.01,8.4,13.58,4.81,30.72-7.38,38.35-12.58,7.88-29.57,3.65-38.05-9.89ZM259.76,158.73h0c9.8,15.46,29.4,20.71,44.36,11.34,14.8-9.27,18.55-29.15,8.91-44.71-9.8-15.46-29.32-20.76-44.12-11.48-14.96,9.37-18.79,29.3-9.15,44.86ZM170.66,240.91h0c-11.71-11.14-12.27-28.43-2.04-39.19,9.91-10.42,27.22-10.72,38.99.35,11.51,11.08,12.28,28.56,2.36,38.99-10.24,10.76-27.74,10.87-39.31-.14ZM167.5,244.23h0c13.33,12.55,33.62,12.77,45.78-.02,12.04-12.66,10.74-32.84-2.46-45.52-13.33-12.55-33.55-12.84-45.59-.18-12.17,12.79-10.93,33.04,2.27,45.73ZM139.86,342.13c1.05.62,2.45.25,3.07-.79.66-1.13.3-2.53-.75-3.15l-24.23-14.26,13.93-23.66c.66-1.13.3-2.53-.75-3.15-1.13-.66-2.53-.3-3.2.83l-13.93,23.66-22.3-13.12,15.92-27.05c.62-1.05.25-2.45-.88-3.12-1.05-.62-2.45-.25-3.07.8l-16.96,28.82-.19.32c-.54,1.09-.2,2.37.84,2.99l52.48,30.89ZM103.24,447.14c1.19.24,2.4-.57,2.64-1.76.24-1.19-.57-2.4-1.76-2.64l-57.43-11.45,3.85-19.33c.24-1.19-.57-2.4-1.85-2.65-1.19-.24-2.4.57-2.64,1.76l-8.58,43.05c-.24,1.19.57,2.4,1.76,2.64,1.28.26,2.49-.55,2.73-1.74l3.85-19.33,57.43,11.45ZM95.95,558.56c1.21,0,2.15-.93,2.24-2.05v-.47l.02-33.34c0-1.31-1.03-2.24-2.24-2.24-1.31,0-2.34.93-2.34,2.24l-.02,31.29-25.78-.02.02-27.37c0-1.21-1.03-2.24-2.24-2.24-1.31,0-2.34,1.03-2.34,2.24l-.02,27.37-25.87-.02.02-31.29c0-1.31-1.03-2.24-2.33-2.24-1.21,0-2.24.93-2.24,2.24l-.02,33.44v.19c0,1.21,1.03,2.24,2.24,2.24l60.9.04ZM95.93,625.54h0c1.21,0,2.24-1.03,2.24-2.24,0-1.31-1.03-2.34-2.24-2.34h-60.9c-1.21-.01-2.24,1.02-2.24,2.32,0,1.21,1.03,2.24,2.24,2.24h60.9ZM93.59,723.26h-56.23s0-9.89,0-9.89c.09-15.5,12.61-28.12,28.2-28.12,15.5,0,28.02,12.61,28.02,28.11v9.9ZM98.17,713.35c0-18.03-14.57-32.69-32.6-32.69-18.03,0-32.78,14.67-32.78,32.69v11.96s0,.28,0,.28c0,1.21,1.03,2.24,2.24,2.24h60.9c1.21,0,2.15-.94,2.24-2.06v-12.42Z"/>
</svg>