<?xml version="1.0" encoding="UTF-8"?>
<svg id="Layer_1" xmlns="http://www.w3.org/2000/svg" version="1.1" viewBox="0 0 300 162.56">
  <!-- Generator: Adobe Illustrator 29.5.1, SVG Export Plug-In . SVG Version: 2.1.0 Build 141)  -->
  <defs>
    <style>
      .st0 {
        fill: #1d0d03;
      }

      .st1 {
        fill: #c0642f;
      }
    </style>
  </defs>
  <path class="st1" d="M142.61,119.15c-10.72.25-21.64-1.27-32.55-2.91-5.78-.87-11.61-1.64-17.45-1.41-9.73.39-16.73,5.9-22.93,12.79-5.88,6.53-11.56,13.24-17.79,19.45-7.24,7.21-15.97,11.89-25.64,14.91-1.29.4-3.26,1.2-3.82-.27-.62-1.64,1.49-2.13,2.71-2.7,11.61-5.44,20.78-13.93,29.12-23.4,7.84-8.9,15.31-18.13,23.42-26.8,5.1-5.46,11.04-9.47,18.51-10.88,5.4-1.02,10.76-.26,16.12.39,7.74.94,15.51,1.62,23.29,2.13,9.15.6,18.32.64,27.47.35,26.73-.86,53.06-4.32,78.63-12.55,15.96-5.14,31.14-11.85,44.76-21.77,1.28-.93,2.47-1.97,3.45-3.21,1.74-2.2,1-4.2-1.76-4.81-.97-.21-1.94-.14-2.91.05-1.86.35-3.75.37-5.61.21-3.44-.3-5.25-2.72-4.15-5.97,2.16-6.35,6.21-11.31,12.13-14.51,3.31-1.78,6.71-.79,8.9,2.4,3.42,4.98,4.2,10.51,2.87,16.36-2.03,8.91-7.36,15.64-14.17,21.39-13.6,11.5-29.54,18.61-46.13,24.4-21.06,7.35-42.8,11.83-64.92,14.42-10.35,1.21-20.75,2.1-31.57,1.95Z"/>
  <path class="st1" d="M46.97,99.08c.39-4.26,3.03-9.31,7.97-13.02,3.51-2.64,7.1-2.25,10.06,1,4.32,4.74,5.02,10.34,3.64,16.42-1.46,6.42-5.17,11.23-10.33,15.08-6.41,4.78-13.69,7.02-21.62,7.28-.83.03-2,.34-2.27-.86-.23-1.04.7-1.58,1.49-2.03,5.61-3.19,11.23-6.38,16.84-9.56,1.7-.96,3.44-1.88,4.88-3.21.62-.57,1.83-1.11,1.4-2.03-.35-.74-1.49-.18-2.29-.11-.82.07-1.64.2-2.46.21-5.38.07-7.36-1.9-7.32-9.18Z"/>
  <path class="st0" d="M115.59,136.51c.07,3.53-5.21,10.54-8.59,11.37-1.31.32-2.55.03-3.67-.65-1.73-1.05-3.48-2.08-5.12-3.26-1.21-.87-2-.87-2.95.41-1.34,1.8-2.85,3.48-4.38,5.13-1.7,1.84-3.76,2.14-5.92.92-2.34-1.34-4.62-2.79-6.89-4.25-1.37-.88-1.68-2.09-.69-3.45,2.44-3.32,4.9-6.64,7.39-9.92,1.05-1.38,2.46-1.66,4.01-.89,1.87.94,3.74,1.91,5.56,2.95q3.01,1.72,5.13-.9c1.18-1.46,2.4-2.88,3.67-4.26,1.25-1.36,2.78-1.67,4.51-.97,2.17.88,4.21,1.98,5.9,3.63,1.17,1.13,1.95,2.46,2.03,4.14Z"/>
  <path class="st1" d="M4.7,116.9c-1.21,0-1.82.04-2.41-.01-.78-.07-1.87.32-2.2-.63-.38-1.09.56-1.84,1.36-2.34,2.17-1.32,4.37-2.64,6.65-3.76,12.16-5.96,20.64-15.42,26.43-27.51,1-2.09,2.15-4.12,3.34-6.11.39-.66,1.03-1.59,1.93-1.25,1.07.41.75,1.57.56,2.39-1.04,4.39-2.65,8.6-4.46,12.72-2.47,5.62-4.87,11.31-8.58,16.26-4.39,5.85-10.56,8.68-17.64,9.73-1.85.28-3.7.62-4.98.51Z"/>
  <path class="st0" d="M40.34,66.79c-3-.83-6.27-2.71-9.08-5.36-.88-.84-.54-2,.04-2.93,2.06-3.31,4.14-6.6,6.28-9.85.88-1.33,2.26-1.68,3.78-1.3,3.6.89,6.31,3.01,8.26,6.13.27.44.48.94.62,1.44,1.16,4.28-4.64,11.85-9.9,11.87Z"/>
  <path class="st0" d="M287.16,24.93c-.04,3.43-4.28,9.19-7.54,10.25-.87.28-1.76.37-2.65.09-3.19-1-5.92-2.84-8.57-4.8-1.05-.78-1.12-1.91-.51-3.03,1.93-3.56,4.21-6.9,6.47-10.25.53-.79,1.37-1.14,2.29-1.28,4.11-.62,10.55,4.92,10.5,9.02Z"/>
  <path class="st0" d="M54.91,77.69c.56-.78,1.44-.93,2.2-1.27,6.56-2.9,12.76-6.33,17.56-11.86.45-.51.84-1.07,1.29-1.58.63-.72.56-1.26-.27-1.81-1.52-1.01-2.41-2.31-1.67-4.25.81-2.11,2.97-3.88,4.79-3.91,2.03-.03,3.64,1.91,3.19,4.11-.38,1.85-.32,3.41,1.27,4.68.86.69.57,1.56.05,2.33-.55.83-1.28.93-2.06.32-1.22-.95-2.11-.5-3.01.55-5.72,6.69-13.01,10.74-21.48,12.82-.59.14-1.19.33-1.86-.14Z"/>
  <path class="st0" d="M296.86.8c-.55.73-.94,1.37-1.44,1.92-1.14,1.24-2.53,2.11-4.2,2.48-10.63,2.35-20.52,6.63-30.26,11.36-.92.45-2.12,1.66-2.95.35-.7-1.11.6-2.06,1.42-2.74,4.04-3.35,8.78-5.51,13.66-7.21,7.01-2.44,14.15-4.5,21.23-6.7.87-.27,1.82-.61,2.53.54Z"/>
  <path class="st0" d="M140.47,80.35c-.03-3.57,1.23-6.72,2.79-9.75.41-.8,1.03-1.33,1.81-.47.46.5.97.4,1.52.45,3.52.33,5.91,4.14,4.85,7.81-.91,3.15-2.94,5.23-5.84,6.17-3.22,1.05-5.11-.56-5.14-4.21ZM144.55,73.17c-.57,1.71-1.1,3.06-1.46,4.47-.28,1.11.31,1.94,1.29,2.17,1.35.32,2.67-.02,3.52-1.25.61-.88.1-1.72-.65-2.28-1.02-.76-1.93-1.63-2.7-3.11Z"/>
</svg>