<?xml version="1.0" encoding="UTF-8"?>
<svg id="Layer_1" xmlns="http://www.w3.org/2000/svg" version="1.1" viewBox="0 0 500 500">
  <!-- Generator: Adobe Illustrator 29.4.0, SVG Export Plug-In . SVG Version: 2.1.0 Build 152)  -->
  <defs>
    <style>
      .st0 {
        fill: #514338;
      }

      .st1 {
        fill: #f4eee0;
      }

      .st2 {
        fill: #1d0d03;
      }

      .st3 {
        fill: #c8c0b3;
      }

      .st4 {
        fill: #2b1c12;
      }

      .st5 {
        fill: #2a1b11;
      }

      .st6 {
        fill: #f3eddf;
      }

      .st7 {
        fill: #c0642f;
      }

      .st8 {
        fill: #64584c;
      }

      .st9 {
        fill: #ede7d9;
      }

      .st10 {
        fill: #5a4d42;
      }

      .st11 {
        fill: #bdb5a8;
      }

      .st12 {
        fill: #bf642f;
      }

      .st13 {
        fill: #4f4137;
      }

      .st14 {
        fill: #eee7da;
      }

      .st15 {
        fill: #bf632f;
      }

      .st16 {
        fill: #e18749;
      }

      .st17 {
        fill: #e1cbaa;
      }

      .st18 {
        fill: #2b1c11;
      }

      .st19 {
        fill: #264b52;
      }
    </style>
  </defs>
  <path class="st2" d="M369.6,309.14c-.17-.57-.99-.87-.74-1.61.27-.77-.02-1.36-.47-1.98-.62-.87-.79-1.78-.12-2.73-.05-.42-.07-.82-.15-1.21-5.8-29.15-12.59-58.08-18.24-87.25-.25-1.26-.17-2.4.3-3.59,4.88-12.64,7.44-25.78,8.23-39.26.94-15.74-.87-31.21-5.01-46.38-10.46-38.42-34.21-65.36-70.67-81.11-14.7-6.35-30.17-8.75-46.15-8.5-15.47.27-29.97,4.11-43.7,11.01-7.88,3.99-14.67,9.57-20.95,15.74-.45.37-.87.77-1.21,1.19-9.99,12-15.62,25.83-17.43,41.27-.52,4.36-.67,8.73-1.14,13.09-.3,2.9-.89,5.8-.62,8.75,1.02,3.92,2.7,7.56,3.94,11.38.25.74,1.09,1.64.52,2.26-.67.69-1.74.15-2.65-.02-.79-.15-1.86-1.04-2.31-.02-.37.79.82,1.36,1.54,1.83.87.42,1.74.84,2.6,1.26.2.07.4.15.62.22.67.2,1.39.37,1.86.97,1.12,1.31,1.07,2.85.77,4.41-.92,4.76-2.31,9.39-3.47,14.1-.99,4.09-.97,8.11.22,12.07,2.88,9.59,6.07,19.06,9.42,28.51,2.18,6.12,4.54,12.17,5.58,18.64.27,1.74.79,3.4.84,5.18.1,5.5,2.75,9.39,7.73,11.65,3.52,1.59,7.31,2.18,11.13,2.28,4.61.12,9.07-.69,13.29-2.55,2.11-.92,3.82-.69,5.55.72,1.69,1.36,3.57,2.48,5.33,3.72,1.54,1.07,1.59,1.46.17,2.63-2.18,1.76-4.44,3.4-6.57,5.16-8.48,7.06-16.88,14.23-25.58,21.02-.5.4-.79.89-1.17,1.34-2.16,1.96-4.34,3.92-6.49,5.87-.32.72-.2,1.39.15,2.06.5.97.94,1.96,1.49,2.9,5.58,9.64,10.63,19.58,15.86,29.4,4.46,8.33,8.6,16.83,12.82,25.26,1.09,2.18,2.35,4.26,3.35,6.47,2.68,5.87,5.7,11.58,8.45,17.4.22.5.47,1.07,1.19,1.02,7.81-8.16,15.57-16.38,23.52-24.39,18.84-18.96,37.95-37.63,57.61-55.72.5-.07.84-.35,1.17-.67,2.26-2.33,4.83-4.29,6.99-6.69.77-.87,1.69-1.46,2.83-1.69.77-.5,1.29-.1,1.96.3,1.07.67,1.86,1.88,3.1,2.06,1.14.17,1.88.67,2.55,1.51.99,1.26,2.23,2.11,3.84,2.31.84.1,1.56.52,2.28.89,2.23,1.12,3.84,3.3,6.44,3.77.25.05.52.22.62.45.72,1.44,1.81,2.01,3.45,2.48,2.18.62,4.39,1.76,5.48,4.09.12.1.25.17.4.25,1.39.05,2.53.69,3.67,1.41,2.08,1.31,4.44,2.13,6.3,3.84.55.5,1.21.45,1.91.42.72-.05,1.21.2,1.56.94.74,1.59,1.86,2.85,3.62,3.37.3.1.52.25.69.55,1.29,2.21,2.83,4.16,5.45,4.86.25.07.42.27.62.47,1.66,1.66,3.82,2.78,5.03,4.91.15.25.47.42.82.22.22-.15.4-.4.32-.64-.27-1.26.1-2.55-.32-3.82ZM177.97,237.68l-.99-1.56c16.29-10.09,32.55-20.15,48.81-30.22,2.18-.62,4.34-1.24,6.52-1.86-18.12,11.2-36.21,22.43-54.33,33.64Z"/>
  <path class="st2" d="M232.3,204.04c-18.12,11.2-36.21,22.43-54.33,33.64l-.99-1.56c16.29-10.09,32.55-20.15,48.81-30.22,2.18-.62,4.34-1.24,6.52-1.86Z"/>
  <path class="st19" d="M151.8,126.63c1.59,4.33,3.17,8.66,4.77,12.99.35.95.1,1.26-.92,1.31-1.58.07-2.97-.64-4.62-1.05.39,1.02,1.19,1.33,1.76,1.87.74.65,1.64.99,2.56,1.28.18.03.37.05.55.08.45.6,1.25.47,1.8.86,1.66,1.35,1.49,3.21,1.11,4.94-.92,4.21-1.83,8.44-3.08,12.56-1.64,5.41-1.2,10.63.5,15.9,3.86,11.95,8.02,23.79,12.1,35.66,1.69,4.92,2.94,10.05,3.08,15.35.12,4.67,3.6,8.96,8.55,10.67,7.7,2.66,15.36,2.43,22.87-.65,2.37-.97,4.24-.9,6.24.73,1.79,1.46,3.78,2.66,5.7,3.96,1.46.99,1.56,1.6.12,2.67-6.67,4.99-12.9,10.53-19.36,15.78-4.86,3.95-9.57,8.08-14.64,11.76.04-.99-.87-.9-1.4-1.14-19.36-8.65-35.14-21.59-46.96-39.26-3.32-4.95-5.83-10.23-7.53-16.01-1.99-6.75-5.18-13.11-6.97-19.96-2.69-10.3-4.47-20.72-4.34-31.4,0-.56.07-1.13.1-1.69.83-1.06,1.79-2,2.83-2.85.88-.72,1.72-1.48,2.51-2.3,7.76-7.99,16-15.49,23.76-23.48,2.44-2.51,4.77-5.13,7.3-7.56.46-.44.82-1.11,1.62-1.02Z"/>
  <path class="st16" d="M151.8,126.63c-5.87,5.92-11.65,11.93-17.63,17.73-6.32,6.13-12.36,12.53-18.9,18.43-.45.41-.8.97-1.48,1.05-.48-5.77.52-11.43,1.47-17.07,4.07-24.16,14.53-45.16,31.27-63.05,7.21-7.71,14.97-14.77,23.75-20.67.5-.34.95-.81,1.63-.8-.59,1.46-1.74,2.53-2.68,3.73-8.44,10.77-13.37,23-15.17,36.51-1.07,8.01-1.55,16.09-2.26,24.14Z"/>
  <path class="st16" d="M174.39,279.16c-.08.99.43,1.79.86,2.6,4.3,7.99,8.71,15.92,12.94,23.95,9.81,18.62,19.32,37.38,28.42,56.35.28.58.4,1.31,1.09,1.62-1.7,2.69-4.08,3.68-7.3,3.58-6.38-.19-12.77-.05-19.16-.07-.64,0-1.34.23-1.92-.29.5-.5,1.15-.37,1.76-.38,2.01-.02,4.02,0,6.03-.01,1.43-.01,1.51-.11.78-1.36-2.67-4.53-5.24-9.12-7.8-13.71-3.99-7.16-8.06-14.28-11.71-21.62-4.87-9.79-10.36-19.25-15.61-28.83-1.38-2.53-2.7-5.1-4.37-7.46,4.31-4.18,8.97-7.98,13.44-11.98.86-.78,1.69-1.59,2.54-2.39Z"/>
  <path class="st17" d="M336.49,350.16c2.71-2.73,5.4-5.39,8.06-8.08,6.83-6.87,13.73-13.67,20.84-20.25,1.63-1.51,3.16-3.12,4.71-4.7.58-.59,1.08-1.25.17-1.94-2.63-2.01-4.67-4.68-7.25-6.72-3.31-2.62-6.06-5.82-9.25-8.56-1.48-1.27-2.2-1.44-3.67-.08-2.46,2.27-4.96,4.5-7.39,6.8-6.76,6.42-13.61,12.75-20.38,19.16-4.79,4.53-9.62,9.03-14.18,13.8-.46.48-.93.96-1.5,1.33-1.39,1.18-2.59,2.57-3.92,3.81-1.39,1.42-2.83,2.79-4.19,4.24-.39.41-.94.71-1.26,1.19h39.2Z"/>
  <path class="st2" d="M297.72,350.16c1.88-1.62,3.62-3.38,5.29-5.21-.44-.5-.69-.93-.03-1.54,2.07-1.91,3.91-4.05,5.96-5.98.38-.36.66-.92,1.62-.87-1.12,1.22-2.2,2.2-3.19,3.27-.38.41-1.05.74-.68,1.51.35-.3.73-.57,1.06-.89,11.44-11.25,23.22-22.15,34.89-33.15,2.52-2.37,5.05-4.72,7.59-7.06,1.6-1.47,2.01-1.45,3.64.04.72.66,1.41,1.36,2.12,2.03,4.42,4.18,8.82,8.39,13.28,12.53,1.36,1.26,1.43,1.19.06,2.51-11,10.52-21.84,21.2-32.57,31.99-.26.26-.61.48-.82.81h44.01c-.03-.26-.09-.51-.16-.77-2.02-7.71-4.03-15.43-6.02-23.15-1.03-3.99-2.19-7.95-2.98-11.99-.74-3.84-1.56-7.66-2.52-11.44-.83.07-.93.57-.89,1.3.07,1.43,2,2.42.94,4.12-.12.19.24.4.5.48.31.1.49.32.64.62.64,1.26-.78,2.62.2,3.86.01.02-.1.18-.18.22-.25.13-.41-.05-.48-.23-.95-2.56-3.78-3.29-5.21-5.37-.22-.32-.61-.35-.98-.35-.41,0-.88.06-1.15-.31-1.12-1.52-3.27-2.21-3.53-4.43-.05-.4-.43-.51-.83-.53-1.79-.1-2.95-1.49-3.37-2.77-.51-1.55-1.3-1.59-2.47-1.55-.3.01-.62.28-.88.01-1.3-1.33-2.91-2.16-4.56-2.95-2.04-.98-3.68-2.9-6.25-2.61,0,0,0,0,0,0-.38-1.7-1.65-2.56-3.08-3.29-.96-.49-1.88-1.06-2.85-1.55-.25-.13-.68-.21-.87-.08-.8.53-1.01.15-1.22-.58-.4-1.42-1.61-2.34-3.05-2.23-.59.05-.86-.03-.99-.6-.11-.48-.45-.83-.92-.97-1.02-.3-1.77-1.01-2.63-1.56-.8-.52-1.71-1.12-2.61-1.2-1.8-.15-2.96-1.06-3.99-2.39-.49-.63-1.05-1.38-1.94-1.36-.81.02-1.16-.28-1.78-.81-.82-.7-1.84-1.37-2.84-1.93-.49-.28-1,.02-1.24.6.3,1.04,1.32,1.21,2.07,1.67,5.43,3.35,10.96,6.55,16.45,9.8,1.3.77,1.28,1.17.16,2.17-2.83,2.53-5.69,5.04-8.37,7.74-.47.47-.93.95-1.42,1.42-15.11,14.4-30.38,28.63-45.11,43.43-2.87,2.88-5.91,5.6-8.54,8.72-.2.24-.5.49-.43.83h33.19ZM329.67,317.71c.45-.66,1.11-1.1,1.58-1.71.12-.15.28-.3.4-.46-.09,1.17-.68,1.85-1.97,2.17ZM325.31,293.12c-.06.18-.14.36-.12.53-.03-.18,0-.36.12-.53ZM271.22,346.22c.59-.5,1.28-.9,1.48-1.72.03-.55-.6-.57-.82-.94.63-.71,1.37-1.26,1.91-1.98.65-.87,1.11-.61,1.61.09.81.18,1.22-.43,1.69-.88,3.81-3.69,7.52-7.47,11.36-11.13,3.87-3.69,7.74-7.39,11.59-11.11,2.48-2.39,4.9-4.86,7.44-7.19,5.69-5.22,11.24-10.57,16.8-15.92.43-.42.97-.79,1.01-1.49-.03-.04-.02-.08-.04-.13.03.05.05.09.1.14.74.17,1.12-.39,1.55-.81,1.07-1.03,2.09-2.11,3.17-3.14,1.61-1.54,2.18-1.6,4.03-.43,1.26.79,2.54,1.55,3.82,2.29.55.32,1.09.83,1.83.47-.02.8.68.94,1.18,1.23,2.21,1.3,4.4,2.65,6.61,3.95.71.42,1.19.78.31,1.59-2.61,2.39-5.16,4.84-7.82,7.18-.84.74-1.74,1.45-2.26,2.49-1.27,1.74-1.76,3.97-3.17,5.27.66-1.09,1.52-2.4,2.06-3.9-2.37.79-3.73,2.67-4.98,4.66,0,.05,0,.09,0,.14-.04-.07-.06-.14-.14-.22-.66-.08-1.04.38-1.44.77-6.38,6.08-12.77,12.15-19.14,18.24-4.4,4.2-8.59,8.61-13.06,12.75-1.06.98-2.14,1.57-3.58,1.43-3.6-.35-7.2-.32-10.81-.31-3.92.01-7.84,0-11.76,0-.4,0-.94.13-1.13-.29-.25-.53.28-.81.63-1.1Z"/>
  <path class="st12" d="M158.41,293.53c1.6.45,1.79,2.06,2.42,3.2,4.87,8.71,9.66,17.47,14.41,26.25,3.87,7.16,7.4,14.5,11.42,21.58,4.01,7.07,7.98,14.17,12.04,21.21.66,1.14.23,1.15-.7,1.14-2.89-.02-5.78,0-8.67,0-.56-.17-.73-.7-.98-1.14-12.02-21.69-23.98-43.41-34.71-65.78-.64-1.33-.53-2.12.61-3,1.42-1.11,2.62-2.48,4.16-3.45Z"/>
  <path class="st17" d="M309.72,274.38c6.02,3.58,12.03,7.17,18.05,10.75.27.16.54.3.8.46,1.69,1.04,1.73,1.22.27,2.49-2.94,2.57-5.6,5.45-8.82,7.69.7-.94.41-1.44-.62-1.91-7-3.15-13.74-6.8-20.56-10.3,2.97-2.84,5.94-5.68,8.9-8.53.57-.55,1.25-.65,1.99-.65Z"/>
  <path class="st1" d="M243.19,223.24c-6.85,2.54-13.93,4.38-20.89,6.59-7.94,2.52-15.89,5.03-23.81,7.62-6.02,1.97-11.92,1.08-17.76-.63-2.53-.74-4.56-2.35-5.66-4.9-1.12-2.27-.92-4.79-1.36-7.19-.12-.64.13-1.02.79-1.27,3.48-1.33,5.9-4.02,8.35-6.66.83-.89.81-2.21,1.52-3.17,4.34-2.3,8.26-5.24,12.42-7.82,1.74-1.08,3.43-2.22,5.37-3.48-6.19-3.12-12.1-6.14-18.06-9.09-1.58-.78-3.28-.76-4.96-.08-1.92.77-3.82.6-5.72-.16-.5-.2-.86-.45-1.09-.8-.35-.52-.33-1.1-.32-1.31.03-1.14-.01-4.4-.06-8.85,0-.09.02-.24.02-.42,0-.46-.04-.58,0-.7.13-.47,1.31-.55,1.36-.55,3.01-.22,6-.64,8.87-1.67,2.55-.55,2.72-3.85.97-5.43-1.47-1.32-3.3-1.82-5.12-2.35-.68-.2-1.37-.39-2.05-.58-.17-.43-.93.02-.93-.57,0-.58.5-.87.94-1.13,2.42-1.38,4.76-2.89,7.21-4.2,7.9-4.24,15.44-9.1,23.11-13.73,1.92-1.16,3.84-1.6,6.03-1.14,1.42.3,2.8-.18,4.2-.39,2.33-.61,4.67-1.25,7.01-1.83.67-.17,1.24-.49,1.81-.83,5.5-3.35,11.02-6.67,16.5-10.05,1-.62,1.59-.52,2.49.26,1.27,1.11,1.74,2.32,1.76,3.99.06,5.73.2,11.45.48,17.17.09,1.91-.61,2.88-2.25,3.71-6.7,3.42-13.33,6.98-20,10.45-1.32.69-2.04,1.61-2,3.16.22,10.93.39,21.87.6,32.8,0,.54-.1,1.12.29,1.74,3.23-2.04,6.45-4.07,9.66-6.11,4.75-3.01,9.49-6.02,14.24-9.03.51-.32.99-.75,1.64-.8,1.77,1.62,3.52,3.29,5.09,5.1,2.32,2.68,4.91,5.09,7.38,7.61,1,1.01,1.75,2.28,3.07,2.98.26.14.42.45.3.79,0,1.1-.83,1.45-1.63,1.77-1.42.56-2.87,1.06-4.3,1.58-2.93,1.05-5.32,3-7.89,4.66-.37.24-.86.39-1.01.9-.66.43-1.34.83-1.95,1.34-1.55.89-2.97,2-4.63,2.69Z"/>
  <path class="st1" d="M187.09,125.34c-.72.96-.98,2.13-1.41,3.22-5.21,13.44-10.4,26.89-15.59,40.33-.14,1.04-.82,1.44-1.78,1.5-.91.06-1.83.09-2.73-.01-.52-.06-1.19-.06-1.11-.9,2.86-7.18,5.68-14.37,8.61-21.52,1.4-3.43,1.45-6.81.25-10.25-1.72-4.91-3.49-9.8-5.21-14.71-.39-1.12-1.1-1.77-2.26-2.07-3.19-.82-6.36-1.75-9.56-2.55-1.11-.28-1.51-.81-1.41-1.95.33-4.01.25-8.08.97-12.01.74-4.03,2.21-7.92,3.72-11.75,3.77-9.55,8.9-18.23,16.22-25.53,2.94-2.93,6.27-5.34,9.89-7.37.94-.53,1.9-.82,2.96-.57,3.46.83,6.94,1.56,10.25,2.91,7.01,2.87,11.92,7.82,14.58,14.91,1.32,3.52,2.43,7.12,3.69,10.66,3.54,9.95,7.85,19.58,12.08,29.25.86,1.97,2.05,3.81,3.09,5.71.34.62-.07.74-.54.82-1.57-.43-2.83-1.45-4.23-2.2-5.05-2.7-10.34-4.7-16.06-5.23-7.78-.71-15.04.92-21.57,5.38-1.44.99-1.96,2.58-2.85,3.94Z"/>
  <path class="st1" d="M305.72,153.88c-3.58-1.6-6.97-3.55-10.36-5.49-.68-.39-.84-.98-.99-1.64-3.22-14.61-6.39-29.23-9.67-43.83-2.29-10.19-4.9-20.32-9.38-29.8-7.68-16.26-19.83-27.9-36.58-34.63-.38-.15-.77-.3-1.15-.46-.09-.04-.15-.13-.23-.2.2-.44.62-.31.94-.31,13.87.14,27.38,2.27,40.29,7.56.28.12.54.29.82.43,1.74,1.69,3.91,2.82,5.66,4.54,6.59,6.46,11.08,14.19,14.16,22.8,2.37,6.61,4.32,13.35,6.44,20.04,1.32,4.18,2.39,8.44,3.76,12.6,1.53,4.69,1.51,9.41.95,14.23-.61,5.17-1.31,10.32-1.5,15.54-.15,3.91-.84,7.79-1.3,11.68-.21,1.79-.36,3.59-.56,5.38-.08.72.06,1.82-1.29,1.56Z"/>
  <path class="st17" d="M305.72,153.88c.73-.11.88-.68.9-1.25.19-5.13,1.21-10.16,1.58-15.27.45-6.07.95-12.15,1.81-18.18.71-5,.25-9.89-1.29-14.73-2.85-8.95-5.44-17.98-8.32-26.93-2.19-6.81-4.85-13.43-9.03-19.35-2.42-3.42-5.17-6.52-8.23-9.37-1.04-.97-2.58-1.32-3.39-2.61-.14-.22-.23-.46-.34-.69,8.1,2.75,15.85,6.26,22.46,11.77,7.47,6.24,11.76,14.45,13.98,23.85,2.76,11.68,6.04,23.22,9.4,34.74,1.28,4.39,1.05,8.76.44,13.18-2.04,14.91-4.1,29.82-6.1,44.73-1.56,11.65-3.57,23.24-5.32,34.86-.56,3.74-.99,7.46-.85,11.24.17,4.5-1.06,8.79-1.86,13.14-.02.12-.15.22-.48.67-2.64-14.87-5.22-29.43-8.11-43.92.23-11.06,1.87-21.99,2.87-32.98.03-.31.05-.62.13-.91.17-.76.84-.54,1.34-.68.72-.21-.24-.27-.04-.43-.52-.3-1.04-.59-1.57-.89Z"/>
  <path class="st1" d="M264.28,287.39c0,1.08,0,2.16.02,3.24.02.94-.35,1.66-1.04,2.3-5.62,5.24-11.21,10.51-16.82,15.76-.32.3-.59.83-1.13.61-.41-.17-.23-.64-.22-.98.28-14.02.57-28.05.86-42.07.4-2.24.29-4.52.13-6.75-.21-3,.69-5.45,2.35-7.9,5.26-7.77,9.9-15.93,14.78-23.95.32-.52.53-1.13,1.2-1.37.51.39.27.95.27,1.43.02,10.26.21,20.53-.05,30.78-.24,9.38-.18,18.75-.25,28.13,0,.26,0,.52-.1.76Z"/>
  <path class="st17" d="M243.47,258.85c.26,1.38.18,2.78.15,4.17-.25,15.58-.51,31.16-.72,46.74-.02,1.68-.58,2.94-1.82,4.07-3.05,2.78-6.03,5.64-9.05,8.45-.28.26-.5.78-.98.58-.41-.17-.22-.64-.21-.98.28-15.99.57-31.99.86-47.98,0-.1.03-.2.05-.31,1.1-2.12,2.86-3.75,4.26-5.64,2.1-2.86,4.62-5.41,6.52-8.44.2-.33.41-.75.94-.66Z"/>
  <path class="st17" d="M267,244.9c-.02-3.4-.14-6.8-.04-10.19.19-6.45.22-12.89-.46-19.31-.06-.53,0-1.08,0-1.66.7.14.81.65.94,1.05,2.65,8.17,7.91,14.88,12.4,22.02,5.08,8.07,10.26,16.07,15.47,24.06.85,1.3.8,2.09-.4,3.1-3.37,2.87-6.44,6.07-9.89,8.86-3.35-7.74-7.03-15.33-10.45-23.04-2.21-4.98-4.49-9.94-6.81-14.98-.01,2.9.03,5.71-.03,8.53-.01.57.31,1.41-.71,1.56Z"/>
  <path class="st17" d="M229.02,301.19c-.12,7.68-.24,15.37-.36,23.06-.02,1.15-.44,2.08-1.26,2.89-3.18,3.16-6.34,6.35-9.52,9.52-.31.3-.56.92-1.08.7-.59-.25-.32-.91-.31-1.39.23-12.27.49-24.55.73-36.82.11-5.31.21-10.62.31-15.93.25-1.84.5-1.96,1.96-.79,3.14,2.51,5.96,5.39,9.03,7.98.43.36.58.82.57,1.37-.06,3.14.1,6.28-.08,9.42Z"/>
  <path class="st1" d="M267,244.9c.52-.45.3-1.06.3-1.6.02-3.19.01-6.37.3-9.65.47.97.97,1.93,1.41,2.91,2.4,5.29,4.79,10.58,7.18,15.87,2.78,6.14,5.45,12.32,8.52,18.32.34.66.43,1.35.28,2.08-6.08,5.63-12.15,11.26-18.18,16.84-.56-.23-.41-.58-.4-.86.17-14.48.34-28.97.52-43.45,0-.15.04-.31.06-.46Z"/>
  <path class="st17" d="M249.35,190.7c0-2.09.03-4.05-.02-6.01-.02-.79.34-1.38.74-1.98,2.29-3.49,4.57-7,6.89-10.47,3.64-5.44,7.34-10.85,10.96-16.31.67-1.01,1.26-1.41,2.28-.56.12.1.26.17.41.22,4.5,1.55,7.22,5.12,9.92,8.72.71.95.63,1.51-.46,2.02-1.99.92-3.41,2.46-4.52,4.32-.4.67-.84,1.31-1.49,1.75-7.93,5.32-15.16,11.58-22.81,17.29-.51.38-.95.94-1.91,1.01Z"/>
  <path class="st16" d="M246.29,163.55c.38.3.3.75.3,1.14.01,3.93.01,7.87.01,11.8-1.82,2.76-4.1,5.15-6.22,7.67-2.79,3.3-5.38,6.79-8.61,9.7-2.03,1.83-4.07,3.64-5.89,5.69-.23.26-.49.62-.89.46-.34-.14-.22-.54-.21-.83.05-1.69-.14-3.39.11-5.08-.09-4.69-.22-9.37-.26-14.06-.01-1.37-.62-2.74-.05-4.12.36-.36.09-.98.55-1.29.34-.53,1.03-.68,1.36-1.22h-.02c2.58-.82,4.76-2.44,7.14-3.66l.02-.03c.32-.25.74-.26,1.07-.47.48-.22.92-.5,1.38-.75.61-.31,1.22-.62,1.84-.93,2.8-1.31,5.36-3.15,8.38-4Z"/>
  <path class="st17" d="M216.54,149.19c-1.42.71-3,.94-4.45.57-2.16-.55-3.83.25-5.51,1.29-9.96,6.19-20.1,12.09-30.3,17.87-.7.4-1.36.71-.29,1.43-3.47-.51-3.46-.5-2.21-3.73,4.25-11.05,8.49-22.1,12.74-33.15.18-.47.24-1.01.77-1.46.44.65.14,1.3.05,1.87-.47,3.1-.96,6.21-1.52,9.29-.17.94.08,1.26.99,1.45,7.18,1.53,14.26,3.57,21.58,4.44,2.72.33,5.44.37,8.16.12Z"/>
  <path class="st0" d="M187.09,125.34c.23-2.69,2.07-4.19,4.17-5.37,8.55-4.8,17.55-5.81,26.97-3.06,4.83,1.41,9.28,3.63,13.52,6.31.58.03.9.68,1.51.65,2.22,3.5,5.09,6.48,7.73,9.64-.79.33-1.26-.29-1.77-.66-4.81-3.38-9.64-6.73-14.88-9.42-5.49-2.81-11.43-3.7-17.55-3.47-1.83.07-3.38.86-4.69,2.11-1.45,1.38-1.26,2.7.48,3.74,1.02.61,2.12.76,3.27.72,5.23-.18,10.38.2,15.48,1.51,6.24,1.61,12.47,3.25,18.41,5.81.42.18.87.32,1.23.64.13.13.17.28.13.46-2.08.51-3.85,1.71-5.64,2.76-2.28,1.34-4.05,1.3-6.26-.3-3.32-2.4-7-4.28-10.69-6.13-2.96-1.48-6.07-2.12-9.35-2.16-4.73-.05-9.44-.36-14.17-.38-2.4,0-4.76-.75-6.6-2.56-.36-.35-.85-.56-1.28-.84Z"/>
  <path class="st17" d="M264.61,210.31c-3.22-2.78-6.1-5.91-9.03-8.98-1.95-2.04-3.92-4.07-5.87-6.11-.38-.4-.63-.93-.94-1.4,5.62-3.19,10.38-7.56,15.53-11.4,2.79-2.08,5.55-4.2,8.49-6.43.31,1.53-.13,2.69-.36,3.86-1.72,9.06-4.48,17.86-6.77,26.78-.32,1.23-.24,2.58-1.06,3.67Z"/>
  <path class="st17" d="M264.28,287.39c-.03-2.78-.07-5.57-.07-8.35,0-6.04-.15-12.08.08-18.11.41-10.98.09-21.97.25-32.95,0-.43,0-.87,0-1.61-3.46,5.74-6.71,11.2-10.04,16.62-1.99,3.24-4.06,6.44-6.16,9.62-1.37,2.08-2.4,4.16-2.1,6.79.21,1.78.04,3.61.02,5.41,0,.49.19,1.05-.31,1.44-.24-4.74.1-9.48.06-14.23-.05-5.37,0-10.73-.06-16.1-.02-1.26.4-2.15,1.34-2.94,2.33-1.96,4.47-4.18,6.94-5.93,3.55-2.52,5.91-5.82,7.59-9.73.48-1.11.98-2.25,1.97-3.07.55.51.37,1.12.43,1.66.91,8.85.68,17.73.61,26.6-.11,14.19-.24,28.38-.37,42.57,0,.77.11,1.55-.16,2.3Z"/>
  <path class="st17" d="M165.4,197.16c-1.12-3.35-2.27-6.63-3.32-9.94-1.4-4.41-2.68-8.86-4.08-13.27-1.17-3.69-1.18-7.38-.22-11.11,1.03-4.04,2.08-8.08,3.06-12.14.27-1.11.71-1.62,1.91-1.34,1.47.34,2.98.19,4.46.05,2.99-.28,3.12-.11,1.94,2.73-2,4.85-4.02,9.7-6,14.56-1.71,4.19-.81,7.63,2.71,10.43,2.45,1.94,3.83,4.38,3.78,7.58-.02,1.34.1,2.68.11,4.02.06,4.05-.81,5.74-4.35,8.43Z"/>
  <path class="st16" d="M229.02,301.19c-.02-2.67-.09-5.35-.05-8.02.02-1.24-.21-2.13-1.29-3.01-2.9-2.37-5.63-4.95-8.42-7.45-.38-.34-.73-.74-1.29-.76-.4.33.03.94-.43,1.25-.03-4.74-.03-9.48.21-14.21.02-.48.24-.88.55-1.25,3.44-4.18,6.87-8.36,10.32-12.53.21-.26.39-.72.82-.57.42.15.28.59.27.95-.18,14.79-.36,29.59-.55,44.38,0,.4-.09.81-.13,1.21Z"/>
  <path class="st12" d="M243.47,258.85c-3.59,5.17-7.59,10.01-11.71,14.75,0-6.19.05-12.37.01-18.56-.01-2.37.61-4.38,2.24-6.2,2.89-3.22,5.6-6.6,8.38-9.91.29-.35.52-.94,1.03-.79.56.17.32.8.31,1.23-.08,6.49-.18,12.98-.28,19.48Z"/>
  <path class="st12" d="M224.88,194.08v6.1c2.41-3.08,5.15-5.15,7.56-7.55,4.03-4.02,7.41-8.61,11.15-12.88.97-1.11,1.69-2.46,3-3.26.38,4.82.5,9.66.66,14.49.03.99-.34,1.65-1.16,2.17-6.67,4.18-13.33,8.38-20.01,12.56-.51.32-1.23,1.02-1.25-.4-.04-3.49-.09-6.99-.13-10.48,0-.25.11-.49.17-.74Z"/>
  <path class="st1" d="M241.02,134.68c-6.02-2.33-12.13-4.32-18.39-5.9-5.55-1.4-11.12-2.22-16.84-1.8-1.45.11-2.77-.24-3.95-1.07-1.49-1.06-1.66-2.49-.4-3.81,1.51-1.59,3.38-2.58,5.6-2.62,6.76-.12,13.25.98,19.18,4.44,4.77,2.78,9.36,5.84,13.86,9.04.29.2.61.36.91.55.24.27.48.53.72.8,0,.55-.25.62-.68.39Z"/>
  <path class="st1" d="M242.29,111.75c6.77,7.91,13.49,15.87,20.43,23.64,2.34,2.62,4.73,5.18,7.66,7.16.69.47.89.94.44,1.65-.05.09-.08.19-.12.28-1.49,3.24-1.92,3.35-4.5,1.06-8.1-7.19-15.48-15-20.73-24.59-1.43-2.62-2.82-5.28-3.54-8.21-.08-.41-.39-.9.37-1Z"/>
  <path class="st1" d="M306.36,155.39c-.2,4.1-.77,8.16-1.2,12.23-.41,3.82-.49,7.69-1.05,11.49-.52,3.55-.22,7.17-1.11,10.66-2.13-11.62-4.42-23.21-6.87-34.77-.39-1.84-.38-1.83,1.48-1.44,2.87.59,5.73,1.26,8.65,1.6.12,0,.18.04.17.11-.01.08-.03.12-.07.12Z"/>
  <path class="st17" d="M266.67,153.81c-5.88,8.64-12.04,17.06-17.25,26.09-.66-.28-.45-.76-.46-1.11-.13-5.15-.23-10.3-.36-15.44-.02-.72.07-1.34.77-1.7,5.61-2.89,11.26-5.69,17.3-7.83Z"/>
  <path class="st16" d="M196.79,203.53c-1.21.75-2.44,1.47-3.64,2.25-1.51.98-3.02,1.98-4.48,3.02-5.44,3.88-12.43,3.51-17.41-.97-.77-.69-1.74-1.11-2.38-1.96-.38-.51-.64-.95.03-1.41,1.58-1.1,3.18-2.08,5.24-1.95,7.25.47,14.52.35,21.78.58.24,0,.48.05.72.08.04.12.09.24.13.37Z"/>
  <path class="st1" d="M283.65,167.64c3.66-.05,7.04,3.42,7.14,7.34.1,4.13-3.19,7.49-7.37,7.52-3.85.02-6.82-3.3-6.84-7.64-.02-4.02,3.06-7.16,7.07-7.22Z"/>
  <path class="st1" d="M248.59,140.69c4.78,4.11,10,7.77,15.64,11.23-2.04,1.02-3.87,1.93-5.71,2.84-2.9,1.44-5.81,2.88-8.71,4.31-.54.27-1.21.76-1.22-.44,0-5.96,0-11.91,0-17.94Z"/>
  <path class="st15" d="M193.59,200.75c-1.12.36-2.07-.07-3.03-.05-4.43.06-8.86-.49-13.28.15-.38.06-.83-.07-1.2-.22-1.75-.74-3.48-.81-5.25-.03-1.56.69-2.06-.7-2.81-1.53-.78-.86.18-1.3.57-1.79,1.8-2.24,3.88-2.74,6.42-1.48,1.02.51,1.94.58,2.94.14,2.82-1.24,5.45-.95,8.09.68,1.92,1.19,4.04,2.06,6.06,3.1.49.25,1.07.37,1.48,1.04Z"/>
  <path class="st17" d="M184.36,213.63c.04,1.35-.4,2.61-1.27,3.55-2.21,2.37-4.45,4.73-7.39,6.25-.27.14-.54.39-.81.39-1.16,0-.91.64-.87,1.44.12,2.27.53,4.47,1.04,6.67-.89-1.04-1.13-2.34-1.14-3.6-.04-5.39-2.19-10.35-3.04-15.56-.07-.46-.24-.9-.3-1.36-.05-.41.15-.88.58-.46,3.64,3.67,8.27,2.39,12.6,2.61.2,0,.41.05.61.07Z"/>
  <path class="st12" d="M164.47,169.48c1.44.99,4.76.64,5.62-.58-.18,1.2.53,2,1.35,2.59,3.5,2.52,7.05,4.97,10.74,7.21-1.48,1.39-3.43,1.39-5.24,1.74-1.14.22-2.33.37-3.49.31-1.17-.06-1.51.46-1.51,1.47.03-2.43-1.31-4.01-3.1-5.46-1.55-1.26-2.81-2.86-3.97-4.5-.59-.82-1.18-1.73-.41-2.79Z"/>
  <path class="st6" d="M223.58,139.09c-1.17-.5-2.26-.93-3.33-1.42-4.28-1.96-8.68-3.19-13.45-2.48-.66.1-1.25-.06-1.48-.79-.2-.65.12-1.1.64-1.42.53-.32,1.05-.67,1.63-.87,5.04-1.7,9.75-.82,14.07,2.12,1.56,1.06,2.23,2.74,1.91,4.86Z"/>
  <path class="st6" d="M170.92,139.41c-2.07-.74-3.78-1.96-5.84-2.33-1.46-.26-2.87-.24-4.27.21-.54.17-1.11.5-1.53-.12-.47-.69-.23-1.35.23-1.99,1.62-2.25,4.44-2.97,7.52-1.9,2.58.9,4.04,3.13,3.89,6.13Z"/>
  <path class="st0" d="M155.53,125.44c3.7,1.25,7.32,2.7,10.82,4.72-3.77-.28-6.95.71-9.39,4.04-.78-3.14-2.36-5.64-2.87-8.53.49,0,.97-.1,1.44-.24Z"/>
  <path class="st6" d="M213.7,140.19c3.16.7,5.82,2.12,8.9,2.94-2.9,2.75-6.27,3.75-10.32,4.31,1.87-2.29,2.35-4.58,1.42-7.25Z"/>
  <path class="st14" d="M198.88,146.11c1.17-1.13,2.34-2.26,3.57-3.45.52,1.08.94,2.01,1.42,2.9.42.77.01.88-.61.88-1.23.02-2.46.04-3.68.06-.37.12-.72.19-.69-.39Z"/>
  <path class="st9" d="M169.82,141.82c2.12,1.02,2.49,3.41.93,4.93-.48.47-1.14.72-1.67.33-.51-.38.11-.82.29-1.18.59-1.24.79-2.53.46-4.08Z"/>
  <path class="st10" d="M249.59,219.16c2.78-2.23,5.5-4.58,9.07-5.51-2.49,1.45-5.01,2.85-7.31,4.6-.44.34-.91.64-1.36.96-.15.15-.29.13-.41-.05Z"/>
  <path class="st16" d="M233.61,169.72c-1.93,1.61-4.19,2.65-6.42,3.74-.19.09-.48-.04-.72-.07,2.31-1.36,4.62-2.71,7.14-3.66Z"/>
  <path class="st16" d="M246.29,163.55c-2.89,1.13-5.4,3.05-8.38,4,2.37-1.82,5.12-2.9,7.81-4.13.14-.07.38.08.57.12Z"/>
  <path class="st8" d="M243.19,223.24c1.54-.95,3.07-1.9,4.61-2.85.1.07.14.15.11.23-.03.08-.06.12-.09.12-1.5.91-2.78,2.24-4.63,2.49Z"/>
  <path class="st5" d="M268.25,106.95c-.4-.76-.65-1.55-.68-2.42.75.76.82.98.68,2.42Z"/>
  <path class="st2" d="M303.11,154.68c.09-.63.18-1.27.27-1.9,2.32,1.12,4.65,2.25,6.97,3.37-2.41-.49-4.83-.98-7.24-1.47Z"/>
  <path class="st13" d="M247.82,220.75c0-.12-.01-.24-.02-.35.49-.57,1.08-.99,1.79-1.23.13.02.27.03.41.05-.73.51-1.45,1.02-2.18,1.54Z"/>
  <path class="st19" d="M155.36,143.03c-1.05-.03-1.96-.35-2.56-1.28.85.43,1.71.85,2.56,1.28Z"/>
  <path class="st1" d="M233.26,123.86c-.78.42-1.06-.3-1.51-.65.41.03.6-.17.59-.58l.93,1.22Z"/>
  <path class="st3" d="M242.29,111.75c-.44.22-.25.66-.37,1-.39-.53-.51-1.14-.55-1.81.58.02.75.41.92.81Z"/>
  <path class="st16" d="M226.48,173.38c-.1.73-.8.85-1.24,1.25-.11.13-.22.13-.33,0,.3-.7.88-1.04,1.57-1.24Z"/>
  <path class="st19" d="M157.7,143.97c-.69-.1-1.47,0-1.8-.86.6.28,1.36.24,1.8.86Z"/>
  <path class="st11" d="M241.02,134.68c.27-.05.56-.07.68-.39.37.12.59.38.66.78-.47.3-.85-.17-1.28-.14-.03-.08-.05-.17-.06-.26Z"/>
  <path class="st0" d="M155.53,125.44c-.49.05-.81,1.04-1.44.24.39-.65.95-.23,1.44-.24Z"/>
  <path class="st16" d="M236.07,168.48c-.27.5-.78.64-1.24.86-.18-.1-.19-.22-.02-.34.36-.33.76-.55,1.27-.52Z"/>
  <path class="st4" d="M272.91,122.1c-.1.14-.16.32-.25.35-.26.07-.34-.15-.31-.35.01-.1.16-.26.25-.26.09,0,.19.15.31.26Z"/>
  <path class="st18" d="M273.84,125.81c-.1.14-.16.33-.25.35-.26.07-.34-.15-.31-.35.01-.1.16-.26.25-.26.09,0,.19.15.31.26Z"/>
  <path class="st4" d="M271.98,120.44c-.34-.23-.37-.55-.25-.9.07-.2.23-.13.34-.02.34.34,0,.62-.09.92h0Z"/>
  <path class="st16" d="M224.9,174.63c.11,0,.22,0,.33,0-.29.39-.21.97-.67,1.27-.07-.47-.07-.93.34-1.27Z"/>
  <path class="st16" d="M234.81,169c0,.11.01.23.02.34-.37.24-.76.38-1.2.36.27-.45.73-.56,1.18-.7Z"/>
  <path class="st18" d="M274.12,127.15c-.09.21-.23.23-.34.12-.08-.09-.1-.24-.14-.37.11-.03.28-.12.33-.08.09.08.11.24.14.33Z"/>
  <path class="st4" d="M271.97,120.44c.26.15.56.27.48.66-.01.06-.17.14-.22.12-.38-.15-.22-.5-.26-.78,0,0,0,0,0,0Z"/>
  <path class="st5" d="M268.55,108.14c-.06-.13-.17-.26-.16-.39,0-.17.19-.25.31-.14.09.08.1.27.12.41,0,.03-.15.07-.27.12Z"/>
  <path class="st2" d="M198.88,146.11c.11.34.45.28.69.39-.34.26-.75.49-1.09.13-.17-.18.1-.45.39-.52Z"/>
  <path class="st2" d="M303.01,344.95c-1.14-.2-1.64-.54-.55-1.59,2.17-2.09,4.27-4.25,6.4-6.38.25-.25.5-.52.77-.75.39-.33.89-.46,1.26-.11.56.53-.16.77-.4,1.06-1.21,1.44-2.87,2.47-3.81,4.16-1.13,1.29-2.33,2.52-3.67,3.6Z"/>
  <path class="st12" d="M339.73,292.33c2.67,1.63,5.33,3.26,8,4.88,1.63.98,1.61,1.01.22,2.29-3.39,3.14-6.74,6.32-10.11,9.48-.23.56-.59.98-1.2,1.15-1.86,1.37-3.46,3.01-4.99,4.73h.02c-2.39,1.64-4.3,3.83-6.38,5.8-9.22,8.79-18.36,17.66-27.51,26.53-.84.82-1.73,1.21-2.9,1.15-7.83-.45-15.67-.28-23.51-.27-.54,0-1.26.21-1.52-.44-.31-.74.45-1.07.86-1.47.62-.61,1.38-1.09,1.85-1.85.72-1.14,1.52-2.19,2.85-2.68.61-.22.98-.74,1.42-1.16,7.74-7.48,15.44-15,23.21-22.45,7.99-7.66,16.05-15.25,24.07-22.88.41-.39.76-.83,1.15-1.24h-.01c1.8-1.13,3.09-2.81,4.63-4.22,1.85-1.7,2.24-1.74,4.4-.44,1.79,1.08,3.49,2.33,5.45,3.12,0,0,0-.01,0-.01Z"/>
  <path class="st2" d="M267.29,349.87c1.49,0,2.99.02,4.48,0,1.47-.02,2.93.19,4.31-.74.61-.41,1.76-.58,2.21.29.29.55.64.7,1.04.74h17.09c.86-.11,1.5-.51,2.02-1.4-.84-.27-1.34.95-2.09.25-.56-.52-1.26-.36-1.92-.37-2.27-.01-4.53,0-6.8,0-.68,0-1.27.06-1.86.54-.81.66-1.75.66-2.44-.23-.41-.53-.87-.62-1.46-.62-3.55.01-7.11.06-10.66-.04-.64-.02-2.02,1.28-2.03-.75,0-.18-.45-.05-.66.1-.54.4-1.06.8-1.6,1.2-.25.18-.57.33-.42.72.14.36.49.32.79.33Z"/>
  <path class="st2" d="M289.04,327.71c.66-3.46,3.64-4.57,5.34-6.71-1.66,2.16-2.53,4.94-5.34,6.71Z"/>
  <path class="st2" d="M275.42,341.61c-.87.98-1.78,1.92-2.85,2.68-.43-.15-.86-.29-1.38-.47,1.29-1.14,2.54-2.25,3.79-3.36.07.18.26.66.45,1.15Z"/>
  <path class="st2" d="M303.71,313.97c-.11-2.9,2.29-3.74,3.65-5.63-.08,2.74-2.06,3.88-3.65,5.63Z"/>
  <path class="st2" d="M276.16,338.66c1.28-1.25,2.3-2.25,3.32-3.25.18-.18.43-.42.65-.22.21.18.47.61.39.77-.57,1.12-1.62,1.83-2.48,2.7-.48.48-1-.04-1.88,0Z"/>
  <path class="st2" d="M314.48,302.34c-2.05,1.05-2.2,3.42-3.7,4.85-.35.33-.72.89-1.26.33-.53-.55,0-.91.35-1.26,1.4-1.42,2.8-2.83,4.19-4.25.14.11.28.22.42.33Z"/>
  <path class="st2" d="M331.66,314.85c.3.07.59.11.56.56-.09,1.66-1.56,2.92-3.42,2.79.74-1.35,2.19-2.03,2.88-3.35,0,0-.02,0-.02,0Z"/>
  <path class="st2" d="M336.65,310.12c.32-.47.71-.86,1.2-1.15-1.18,2.13-1.78,4.64-4.47,6.25,1.51-1.76,1.89-3.73,3.27-5.1Z"/>
  <path class="st2" d="M323.17,323.38c.74-.76,1.23-1.69,2.3-1.96.27-.07.65-.12.83.21.16.28-.11.47-.27.65-.73.78-1.42,1.67-2.85,1.1Z"/>
  <path class="st2" d="M344.27,303.71c.35-.85.86-1.02,1.53-.78.18.07.39.27.22.48-.48.58-1.09.26-1.75.3Z"/>
  <path class="st2" d="M325.27,293.89c-.28-.19-.36-.47-.35-.78,0-.3-.01-.65.36-.74.17-.04.42.03.55.14.33.31,0,.51-.17.75-.15.2-.26.42-.39.63,0,0,.01,0,.01,0Z"/>
  <path class="st2" d="M318.08,328.39c.44-.69,1.03-.41,1.77-.52-.56.95-1.23.47-1.77.52Z"/>
  <path class="st2" d="M317,301.04c-.16.45-.36.71-.75.71-.07,0-.21-.23-.19-.3.13-.36.41-.51.94-.4Z"/>
  <path class="st2" d="M340.51,308.58c-.06.22-.22.34-.44.31-.25-.04-.31-.25-.23-.45.04-.11.2-.25.3-.25.2,0,.35.16.37.39Z"/>
  <path class="st2" d="M319.18,297.94c-.25.23-.35.32-.44.41-.08-.09-.23-.2-.22-.27.03-.11.15-.25.26-.28.1-.03.23.08.4.15Z"/>
  <path class="st2" d="M232.3,204.04c-18.12,11.2-36.21,22.43-54.33,33.64l-.99-1.56c16.29-10.09,32.55-20.15,48.81-30.22,2.18-.62,4.34-1.24,6.52-1.86Z"/>
  <path class="st1" d="M223.39,229.49c6.1-1.81,12.21-3.62,18.31-5.42,3.38-1.24,6.62-2.5,9.71-3.76,7.33-2.98,10.48-4.58,12.32-7.93.46-.83.72-1.57.88-2.07-5.28-5.49-10.56-10.99-15.84-16.48-21.07,13.05-42.13,26.1-63.2,39.15,12.61-1.16,25.22-2.33,37.83-3.49Z"/>
  <path class="st7" d="M241.12,412.38c-12.87.3-25.98-1.53-39.08-3.49-6.94-1.04-13.94-1.97-20.96-1.69-11.69.46-20.09,7.08-27.54,15.36-7.06,7.84-13.88,15.9-21.36,23.35-8.7,8.66-19.17,14.28-30.79,17.9-1.55.49-3.91,1.44-4.59-.32-.75-1.97,1.78-2.55,3.26-3.24,13.94-6.53,24.95-16.72,34.97-28.1,9.42-10.69,18.39-21.77,28.12-32.19,6.13-6.56,13.26-11.37,22.23-13.06,6.48-1.23,12.93-.31,19.36.47,9.3,1.13,18.62,1.94,27.97,2.56,10.99.73,22,.77,32.98.42,32.09-1.03,63.71-5.19,94.42-15.07,19.16-6.17,37.39-14.23,53.75-26.15,1.54-1.12,2.97-2.37,4.15-3.86,2.09-2.65,1.2-5.05-2.11-5.78-1.16-.26-2.32-.16-3.49.06-2.23.42-4.5.45-6.74.25-4.13-.36-6.3-3.26-4.98-7.17,2.59-7.63,7.46-13.58,14.57-17.42,3.97-2.14,8.06-.94,10.68,2.88,4.1,5.98,5.05,12.61,3.44,19.64-2.44,10.7-8.84,18.78-17.01,25.69-16.33,13.81-35.47,22.35-55.39,29.3-25.29,8.83-51.39,14.2-77.95,17.31-12.43,1.46-24.92,2.52-37.9,2.35Z"/>
  <path class="st7" d="M126.29,388.28c.47-5.11,3.64-11.18,9.57-15.63,4.22-3.17,8.52-2.7,12.08,1.21,5.19,5.7,6.03,12.41,4.37,19.71-1.75,7.71-6.2,13.49-12.4,18.11-7.7,5.74-16.44,8.43-25.96,8.75-1,.03-2.41.41-2.72-1.03-.27-1.25.84-1.89,1.79-2.44,6.74-3.84,13.48-7.65,20.23-11.48,2.04-1.16,4.13-2.26,5.86-3.85.75-.69,2.2-1.33,1.68-2.44-.42-.89-1.79-.21-2.75-.13-.99.08-1.97.24-2.96.26-6.46.08-8.84-2.28-8.79-11.03Z"/>
  <path class="st2" d="M208.68,433.22c.09,4.24-6.25,12.65-10.31,13.65-1.57.39-3.06.04-4.41-.78-2.08-1.26-4.18-2.5-6.15-3.91-1.46-1.04-2.4-1.04-3.55.49-1.61,2.16-3.43,4.17-5.26,6.15-2.04,2.2-4.52,2.58-7.11,1.1-2.81-1.6-5.54-3.35-8.27-5.1-1.65-1.06-2.02-2.51-.82-4.14,2.93-3.99,5.88-7.97,8.88-11.91,1.26-1.66,2.96-2,4.82-1.07,2.25,1.13,4.49,2.29,6.68,3.54q3.62,2.07,6.17-1.08c1.41-1.75,2.89-3.45,4.41-5.11,1.5-1.64,3.33-2,5.41-1.16,2.61,1.06,5.05,2.38,7.09,4.36,1.4,1.36,2.34,2.96,2.43,4.97Z"/>
  <path class="st7" d="M75.53,409.68c-1.46,0-2.18.05-2.9-.01-.94-.09-2.25.38-2.65-.76-.46-1.31.67-2.21,1.64-2.81,2.61-1.59,5.24-3.17,7.98-4.52,14.6-7.16,24.79-18.52,31.74-33.03,1.2-2.51,2.58-4.94,4.01-7.34.47-.8,1.23-1.91,2.31-1.5,1.29.49.9,1.89.67,2.86-1.25,5.27-3.18,10.32-5.35,15.27-2.97,6.75-5.84,13.58-10.31,19.53-5.28,7.02-12.68,10.42-21.18,11.69-2.22.33-4.45.74-5.97.61Z"/>
  <path class="st2" d="M118.32,349.51c-3.61-1-7.53-3.25-10.9-6.44-1.06-1-.65-2.4.04-3.51,2.47-3.97,4.97-7.93,7.54-11.83,1.06-1.6,2.71-2.02,4.54-1.56,4.32,1.07,7.58,3.61,9.92,7.36.33.53.58,1.13.74,1.73,1.4,5.14-5.58,14.23-11.88,14.25Z"/>
  <path class="st2" d="M414.7,299.24c-.05,4.12-5.14,11.03-9.06,12.31-1.05.34-2.11.44-3.18.11-3.83-1.2-7.11-3.41-10.29-5.77-1.26-.94-1.34-2.29-.61-3.64,2.32-4.27,5.06-8.29,7.77-12.31.64-.94,1.64-1.36,2.75-1.53,4.93-.74,12.67,5.91,12.61,10.83Z"/>
  <path class="st2" d="M135.82,362.6c.67-.94,1.73-1.12,2.64-1.53,7.88-3.48,15.33-7.61,21.08-14.24.54-.62,1.01-1.29,1.55-1.9.76-.87.67-1.51-.32-2.17-1.82-1.21-2.9-2.77-2-5.1.98-2.53,3.56-4.66,5.75-4.69,2.43-.03,4.37,2.29,3.83,4.93-.46,2.22-.39,4.09,1.53,5.62,1.03.82.68,1.87.06,2.8-.66,1-1.54,1.11-2.47.39-1.47-1.14-2.54-.6-3.61.66-6.86,8.03-15.63,12.9-25.8,15.4-.7.17-1.43.4-2.24-.17Z"/>
  <path class="st2" d="M426.34,270.27c-.65.88-1.13,1.65-1.73,2.3-1.37,1.49-3.04,2.53-5.04,2.98-12.76,2.82-24.64,7.97-36.33,13.64-1.1.54-2.55,2-3.54.42-.84-1.33.72-2.48,1.7-3.29,4.85-4.02,10.55-6.62,16.41-8.66,8.41-2.93,16.99-5.4,25.5-8.04,1.05-.32,2.19-.73,3.04.64Z"/>
  <path class="st2" d="M238.55,365.79c-.03-4.29,1.48-8.07,3.35-11.71.5-.97,1.23-1.6,2.18-.57.55.6,1.17.48,1.83.54,4.22.4,7.1,4.97,5.82,9.37-1.1,3.78-3.53,6.28-7.02,7.41-3.86,1.26-6.13-.67-6.17-5.05ZM243.46,357.17c-.68,2.05-1.32,3.68-1.75,5.37-.34,1.33.37,2.33,1.55,2.61,1.62.39,3.2-.02,4.23-1.5.73-1.05.12-2.07-.78-2.73-1.23-.91-2.31-1.96-3.25-3.74Z"/>
  <g>
    <g id="CUSTOM">
      <path class="st1" d="M280.61,208.85c1.59.37,3.22-.3,4.59-1.89,1.32-1.53,2.25-3.75,2.62-6.25.01-.08.02-.16.03-.24.33.21.67.4,1.02.57,1.88.89,3.87,1.03,5.59.39,1.79-.66,3.09-2.08,3.65-3.99.57-1.91.32-4.05-.68-6.03-.97-1.91-2.54-3.45-4.42-4.34-1.88-.89-3.87-1.03-5.59-.39-1.17.43-2.13,1.19-2.82,2.2-.24.35-.44.74-.61,1.15-.19-.08-.39-.14-.59-.19-1.59-.37-3.22.3-4.59,1.89-.22.26-.43.53-.63.82-.99,1.46-1.68,3.35-1.99,5.42-.37,2.5-.13,4.99.67,7.02.83,2.11,2.16,3.47,3.74,3.85h0ZM296.7,197.38c-.49,1.15-1.4,2.02-2.61,2.47-1.45.54-3.14.41-4.76-.35-.47-.22-.92-.5-1.35-.81.02-1.37-.14-2.71-.48-3.92,1.15.5,2.41.55,3.62.1,1.54-.57,3.17-.12,4.38,1.21l1.19,1.31ZM287.79,188.28c1.45-.54,3.14-.41,4.76.35,1.62.77,2.96,2.07,3.77,3.68.55,1.09.81,2.23.76,3.3l-.72-.79c-1.55-1.7-3.64-2.28-5.61-1.55-1.54.57-3.17.12-4.38-1.21l-.3-.33c-.28-.37-.58-.69-.9-.96.49-1.16,1.4-2.03,2.62-2.48ZM285.97,194.43c.67,1.71.87,3.83.55,5.98-.26,1.79-.86,3.41-1.69,4.65-.16.24-.34.47-.52.68-.76.88-1.6,1.4-2.44,1.52l.49-1.03c1.06-2.22,1.15-4.93.24-7.25-.71-1.81-.64-3.93.19-5.66l.82-1.71c.98.41,1.82,1.39,2.38,2.81h0ZM278.04,204.27c-.67-1.71-.87-3.83-.55-5.98.32-2.15,1.1-4.04,2.21-5.33.76-.88,1.6-1.4,2.44-1.52l-.49,1.03c-1.06,2.22-1.15,4.93-.24,7.25.71,1.81.64,3.93-.19,5.66l-.82,1.71c-.98-.41-1.82-1.39-2.38-2.81h0Z"/>
    </g>
    <g id="CUSTOM1" data-name="CUSTOM">
      <path class="st1" d="M272.89,187.28c1.69-.44,3.38-.23,4.75.58,1.12.66,1.9,1.67,2.25,2.87.39-.3.79-.53,1.2-.69-.1-.33-.23-.65-.38-.96-.55-1.13-1.41-2.07-2.51-2.73-1.62-.96-3.6-1.22-5.57-.7-1.97.51-3.71,1.72-4.9,3.42-1.23,1.76-1.74,3.83-1.41,5.83.33,1.99,1.43,3.65,3.12,4.65,1.62.97,3.6,1.22,5.57.71.35-.09.7-.21,1.04-.35.01-.64.07-1.28.16-1.92.3-2.08,1-3.97,1.99-5.42.2-.29.41-.57.63-.82.12-.14.24-.27.36-.4-.09.08-.18.16-.27.25l-.34.27c-1.35,1.07-3.03,1.2-4.48.34-1.85-1.1-4-.94-5.73.44l-.81.64c.08-1.07.48-2.14,1.16-3.11,1-1.43,2.49-2.46,4.18-2.9ZM269.05,194.05c1.36-1.08,3.03-1.2,4.48-.34,1.14.68,2.39.88,3.59.61-.48,1.13-.81,2.42-.95,3.78-.46.23-.94.41-1.43.54-1.69.44-3.38.23-4.75-.58-1.14-.68-1.93-1.71-2.28-2.95l1.34-1.06Z"/>
    </g>
    <g id="CUSTOM2" data-name="CUSTOM">
      <path class="st1" d="M279.88,190.73c-.24.18-.47.39-.7.62.24-.2.48-.38.73-.52,0-.03-.02-.06-.03-.1Z"/>
    </g>
  </g>
  <g>
    <path class="st16" d="M297.11,195.61l-.74-.8c-1.54-1.7-3.64-2.27-5.62-1.56-1.54.59-3.18.13-4.37-1.2l-.29-.34c-.29-.38-.59-.69-.9-.97.48-1.16,1.41-2.02,2.61-2.48,1.45-.53,3.15-.4,4.77.36s2.94,2.08,3.76,3.68c.57,1.09.82,2.23.78,3.3Z"/>
    <path class="st12" d="M296.71,197.38c-.48,1.16-1.41,2.02-2.61,2.46-1.45.55-3.13.42-4.75-.36-.48-.21-.93-.48-1.37-.8.04-1.37-.13-2.71-.46-3.93,1.14.5,2.4.55,3.62.11,1.54-.57,3.18-.11,4.37,1.22l1.2,1.3Z"/>
    <path class="st16" d="M286.53,200.41c-.25,1.79-.86,3.41-1.68,4.65-.17.25-.34.48-.53.69-.76.86-1.6,1.39-2.44,1.51l.48-1.03c1.05-2.21,1.16-4.92.23-7.26-.69-1.81-.63-3.91.19-5.66l.82-1.7c.99.4,1.81,1.39,2.38,2.82.67,1.7.86,3.83.55,5.97Z"/>
    <path class="st12" d="M281.42,199.71c.71,1.81.65,3.93-.17,5.66l-.82,1.72c-.99-.42-1.83-1.39-2.38-2.82-.67-1.72-.86-3.83-.55-5.97.32-2.17,1.09-4.04,2.21-5.34.76-.88,1.6-1.39,2.44-1.51l-.48,1.03c-1.07,2.21-1.16,4.92-.25,7.23Z"/>
    <path class="st16" d="M277.13,194.33c-.46,1.09-.78,2.36-.93,3.66-.02.04-.02.06-.02.11-.46.23-.95.42-1.43.55-1.7.44-3.39.23-4.75-.59-1.14-.67-1.93-1.7-2.27-2.94l1.32-1.05c1.37-1.09,3.05-1.22,4.48-.36,1.16.69,2.4.88,3.6.63Z"/>
    <g id="CUSTOM3" data-name="CUSTOM">
      <path class="st12" d="M279.89,190.73c-.21.15-.42.34-.63.55.21-.17.44-.34.67-.46-.02-.02-.02-.06-.04-.08Z"/>
      <path class="st12" d="M279.89,190.73c-.21.15-.42.34-.63.55-.02.02-.04.04-.06.06-.08.08-.19.17-.27.25l-.34.27c-1.35,1.07-3.03,1.2-4.48.34-1.85-1.09-4-.95-5.74.44l-.8.63c.08-1.05.48-2.12,1.16-3.11,1.01-1.43,2.48-2.44,4.18-2.88,1.68-.44,3.37-.23,4.73.57,1.14.67,1.91,1.68,2.25,2.88Z"/>
    </g>
  </g>
  <path class="st1" d="M287.94,187.53h-1.12c0-3.08-1.99-5.59-4.43-5.59s-4.43,2.51-4.43,5.59h-1.12c0-3.86,2.49-7,5.54-7s5.54,3.14,5.54,7Z"/>
  <path class="st2" d="M171.93,181.67"/>
</svg>